<svg width="682" height="680" viewBox="0 0 682 680" fill="none" xmlns="http://www.w3.org/2000/svg">
<path d="M483.03 156.635C487.055 156.132 527.753 162.068 549.921 166.387C572.09 170.706 578.92 174.653 593.587 180.047C615.461 188.091 620.322 190.4 621.932 193.514C623.22 196.005 623.412 222.227 623.412 395.725V595.073L620.942 597.542C617.888 600.595 616.67 600.597 602.279 597.56H600.776L607.082 584.016C608.387 584.512 609.878 584.918 610.395 584.918C610.946 584.918 611.336 577.001 611.336 565.837V546.755L610.471 535.608C610.947 535.608 611.336 502.749 611.336 462.59C611.336 414.001 610.998 389.78 610.327 390.196L610.525 380.27L609.855 373.659L610.945 297.025C611.16 297.256 611.336 275.242 611.336 248.106V198.768L604.04 195.738C592.1 190.778 579.49 186.331 564.542 181.808C556.793 179.464 550.3 177.695 550.111 177.877L529.321 174.229L481.017 167.687C481.017 167.687 479.004 157.139 483.03 156.635Z" fill="black"/>
<path d="M564.542 181.808C579.49 186.331 592.1 190.778 604.04 195.738L611.336 198.768V248.106C611.336 275.242 611.16 297.256 610.945 297.025L609.855 373.659L610.525 380.27L570.58 367.946L448.815 281.905L482.023 193.514L481.017 170.706V168.694V167.687L529.321 174.229L550.111 177.877C550.3 177.695 556.793 179.464 564.542 181.808Z" fill="#E43437"/>
<path fill-rule="evenodd" clip-rule="evenodd" d="M234.887 55.3739C231.752 56.2323 229.436 59.5934 229.436 63.2816C229.436 66.4868 247.141 90.6376 262.42 108.271L267.818 114.503L263.974 115.179C261.859 115.551 256.959 116.446 253.084 117.166C246.194 118.449 245.78 118.403 234.128 115.041C206.717 107.132 183.761 104.095 156.98 104.834C128.237 105.627 117.734 108.641 117.734 116.096C117.734 117.399 119.473 120.656 121.597 123.335C126.439 129.439 142.245 144.508 148.5 148.983L153.215 152.357L142.77 153.112C117.064 154.969 107.572 158.511 93.9009 171.347L86.0345 178.732L73.4554 181.961C46.2132 188.952 17.9214 206.058 14.0822 210.477L7.03795 213.496L1 411.039L5.52846 610.995L3.12536 613.87C5.71866 616.463 10.0288 616.226 29.794 612.397C59.6929 606.605 92.1428 602.636 126.287 600.594C152.838 599.006 212.914 599.875 229.436 602.087C254.647 605.461 276.61 610.866 295.607 618.371C311.954 624.83 318.419 626.139 331.113 625.568C342.262 625.064 347.013 623.73 371.328 614.272C383.447 609.558 400.707 605.203 417.828 602.539C434.982 599.871 487.294 598.823 514.092 600.611C547.299 602.827 582.091 607.756 603.047 613.212C615.859 616.548 619.144 616.532 621.829 613.118L615.361 611.498L623.915 470.379V330.292L630.977 327.521C646.1 321.588 664.454 306.377 672.095 293.443C682.317 276.142 683.847 258.096 676.124 245.919C673.652 242.019 673.422 241.055 674.395 238.653C675.013 237.129 675.546 232.235 675.58 227.777C675.629 221.119 675.199 218.781 673.175 214.695C668.49 205.243 659.961 202.717 649.372 207.647C644.898 209.73 643.591 209.934 640.39 209.051C638.33 208.482 632.979 208.173 628.499 208.364C621.102 208.679 619.493 209.151 611.004 213.492C602.043 218.074 601.291 218.275 592.91 218.349C588.1 218.392 582.354 218.987 580.14 219.674C577.373 220.531 575.016 220.629 572.598 219.985C567.582 218.648 559.945 219.683 552.505 222.706C545.504 225.551 540.926 225.89 531.77 224.24C521.617 222.412 502.294 217.379 490.917 213.599L480.06 209.993L482.465 205.831C485.571 200.455 488.07 191.835 488.028 186.641C488.01 184.39 487.067 180.057 485.933 177.012C484.687 173.67 483.699 168.089 483.438 162.924C482.549 145.331 480.021 137.6 472.668 129.984C467.989 125.137 462.937 123.124 452.022 121.754C445.079 120.883 444.364 120.548 439.36 115.815C426.663 103.807 410.689 99.5576 378.155 99.5345L366.366 99.5254L357.023 93.8407C334.982 80.4324 305.125 67.5001 282.771 61.6806C265.339 57.142 240.418 53.8594 234.887 55.3739ZM355.916 141.873C351.354 143.138 346.543 147.429 344.155 152.361C342.31 156.172 341.997 158.265 342.306 164.716C343.617 192.095 373.373 212.85 400.997 205.655C410.038 203.3 410.225 202.882 405.197 196.28C402.817 193.155 399.398 188.429 397.598 185.78L394.324 180.961L392.104 184.256C389.24 188.505 385.761 190.288 381.536 189.672C373.52 188.505 369.315 182.136 369.315 171.165C369.315 163.658 370.52 158.988 373.601 154.567C375.517 151.817 375.52 151.694 373.7 149.684C369.292 144.812 360.011 140.736 355.916 141.873ZM470.363 172.349C470.015 173.256 470.459 175.817 471.348 178.041C472.239 180.265 472.966 183.786 472.966 185.866C472.966 192.302 468.49 196.256 465.05 192.862C464.027 191.854 463.488 191.992 462.333 193.557C460.318 196.288 460.511 197.539 463.496 201.087C467.979 206.415 472.829 204.827 476.562 196.807C480.537 188.271 479.063 177.876 473.129 172.599C471.199 170.882 470.936 170.858 470.363 172.349ZM257.625 216.511C247.497 226.71 236.463 241.159 228.445 254.721C225.116 260.351 222.391 265.242 222.391 265.589C222.391 265.935 225.902 265.643 230.19 264.937C234.479 264.232 244.443 263.336 252.33 262.947L266.67 262.237V235.223C266.67 220.365 266.49 208.209 266.27 208.209C266.05 208.209 262.159 211.944 257.625 216.511ZM276.733 232.055V254.896L289.042 242.873C295.813 236.261 301.361 230.548 301.37 230.179C301.388 229.518 277.911 209.215 277.132 209.215C276.912 209.215 276.733 219.493 276.733 232.055ZM314.306 248.21C314.813 253.053 315.38 257.186 315.566 257.397C316.006 257.894 325.57 251.753 326.957 250.083C327.772 249.101 326.395 247.683 321.152 244.1C317.372 241.518 314.079 239.405 313.832 239.405C313.586 239.405 313.799 243.367 314.306 248.21ZM293.034 251.669L282.667 262.04L285.99 262.688C287.817 263.043 293.098 263.647 297.724 264.027L306.137 264.721L305.4 257.345C304.995 253.29 304.379 248.02 304.032 245.635L303.401 241.298L293.034 251.669ZM326.584 260.906L319.577 266.044L327.918 267.408C332.506 268.157 336.491 268.539 336.775 268.255C337.388 267.641 335.02 256.566 334.175 256.094C333.853 255.914 330.438 258.08 326.584 260.906ZM346.565 262.129C346.901 263.005 347.176 264.59 347.176 265.652C347.176 268.051 348.014 268.053 351.124 265.663L353.562 263.788L350.419 262.163C346.488 260.13 345.795 260.124 346.565 262.129ZM330.092 343.066L324.583 347.065L329.086 348.803C345.718 355.222 367.015 367.501 378.372 377.218L383.907 381.954L402.362 373.73C412.512 369.207 428.69 362.607 438.314 359.062C447.937 355.516 455.822 352.372 455.835 352.073C455.848 351.774 451.443 349.39 446.047 346.773C436.307 342.053 436.118 342.007 420.134 340.645C411.008 339.866 389.212 339.227 369.818 339.17L335.603 339.067L330.092 343.066ZM388.838 416.948C387.121 417.695 385.423 419.073 385.064 420.011C383.776 423.367 384.38 429.262 386.171 430.816C391.163 435.145 418.646 449.621 418.611 447.902C418.589 446.837 410.919 432.973 405.795 424.735C400.049 415.499 396.213 413.737 388.838 416.948ZM536.306 419.484C530.555 421.229 529.319 422.458 529.375 426.365C529.426 429.822 530.412 431.041 542.518 442.592C552.14 451.775 555.47 454.439 555.097 452.655C554.817 451.321 554.296 447.965 553.938 445.198C553.581 442.431 551.938 435.941 550.287 430.775C547.535 422.161 547.005 421.268 543.871 419.957C540.093 418.379 539.974 418.372 536.306 419.484ZM491.1 446.969C487.031 449.068 484.366 456.619 487.1 458.308C488.511 459.18 513.549 465.833 513.943 465.44C514.113 465.269 512.709 461.744 510.823 457.606C507.678 450.705 507.03 449.946 503.011 448.443C496.143 445.877 493.784 445.585 491.1 446.969ZM358.636 461.782C355.549 463.029 352.207 467.696 352.207 470.76C352.207 473.164 353.56 474.082 366.914 480.74C375.003 484.773 381.824 487.869 382.072 487.621C382.843 486.85 368.258 463.893 365.985 462.301C363.598 460.63 361.802 460.503 358.636 461.782ZM309.165 485.956C306.259 487.171 305.529 489.109 306.343 493.448C306.947 496.664 307.84 497.353 319.276 503.428C326.033 507.018 331.704 509.813 331.877 509.639C332.05 509.466 330.133 505.005 327.616 499.726C322.858 489.746 319.692 486.355 314.303 485.468C312.734 485.211 310.423 485.43 309.165 485.956ZM164.764 538.406C127.892 540.631 74.8642 548.471 36.1751 557.419C24.2491 560.178 14.1728 562.435 13.7843 562.435C13.3949 562.435 13.0759 570.812 13.0759 581.052C13.0759 596.45 13.3224 599.669 14.5029 599.669C15.2878 599.669 22.4196 598.049 30.3525 596.069C61.7317 588.236 103.48 580.91 139.873 576.847C160.029 574.598 220.096 574.293 233.964 576.37C259.531 580.2 279.981 586.073 299.381 595.161C314.615 602.296 319.303 603.695 327.962 603.688C337.657 603.681 341.043 602.72 355.071 595.99C373.134 587.324 395.875 580.674 420.637 576.816C436.654 574.322 482.698 574.343 501.647 576.853C534.05 581.146 570.377 588.461 594.229 595.497C601.424 597.619 608.104 599.7 609.072 600.123C610.714 600.839 610.833 599.598 610.833 581.702V562.513L596.804 557.996C562.815 547.051 512.446 539.02 468.941 537.608C433.908 536.471 401.092 541.603 374.845 552.323C358.867 558.849 348.185 565.646 336.314 576.839C330.414 582.403 329.732 582.771 326.312 582.215C323.635 581.78 320.987 580.017 316.542 575.71C292.843 552.742 267.363 543.348 216.354 538.775C198.498 537.175 186.586 537.09 164.764 538.406ZM129.306 554.97C108.463 556.842 82.5475 560.667 52.8277 566.257L27.6716 570.989L28.0148 575.014C28.204 577.228 28.4888 579.174 28.6488 579.34C28.8088 579.505 42.0118 577.379 57.9902 574.615C103.157 566.803 128.956 563.363 157.29 561.374C180.397 559.753 236.45 560.632 249.981 562.828C259.146 564.317 255.552 564.192 251.072 562.828C224.364 554.696 171.749 551.157 129.306 554.97ZM448.815 554.402C426.723 556.46 397.408 561.271 399.001 562.865C399.229 563.091 399.635 563.736 405.124 562.865C418.784 560.697 463.873 559.819 484.036 561.328C513.571 563.539 540.062 567.588 574.584 575.17C585.918 577.659 595.626 579.775 596.158 579.87C597.286 580.075 598.883 572.302 597.908 571.353C597.544 571 589.323 568.874 579.637 566.63C538.471 557.091 518.495 554.433 484.036 553.904C469.922 553.688 454.073 553.912 448.815 554.402Z" fill="#E43437"/>
<path fill-rule="evenodd" clip-rule="evenodd" d="M232.455 57.2597C229.296 60.4185 229.863 65.2429 234.126 71.4871C239.205 78.9259 253.776 97.5278 261.374 106.276C264.84 110.265 267.676 113.913 267.676 114.382C267.676 114.851 262.553 116.066 256.291 117.084C244.949 118.926 244.879 118.925 238.428 116.819C222.142 111.503 200.097 107.142 181.997 105.659C161.177 103.953 129.605 106.171 121.813 109.887C119.766 110.864 119.181 111.96 118.939 115.275C118.658 119.112 119.11 119.975 124.741 126.337C131.431 133.898 144.264 145.63 150.172 149.584C152.238 150.968 153.719 152.44 153.461 152.854C153.205 153.27 148.57 153.685 143.164 153.776C119.77 154.173 107.091 159.038 92.0724 173.382C86.2236 178.967 85.6722 179.241 74.4909 182.145C59.3216 186.084 45.4916 190.411 30.8255 195.804C8.95097 203.848 4.09042 206.158 2.4803 209.271C1.1922 211.763 1 237.985 1 411.482V610.83L3.47053 613.299C6.52372 616.353 7.74238 616.355 22.1328 613.318C85.9217 599.856 180.703 594.87 233.262 602.212C257.48 605.594 274.362 610.083 304.43 621.134C318.093 626.155 331.011 626.806 345.075 623.183C348.167 622.386 356.358 619.525 363.277 616.824C385.609 608.106 405.409 603.244 429.694 600.517C444.427 598.862 500.292 598.867 520.767 600.524C553.636 603.185 580.725 607.236 604.021 612.975C615.18 615.724 617.152 615.96 619.314 614.803C620.679 614.072 622.055 612.797 622.372 611.971C622.69 611.144 622.936 547.448 622.919 470.422L622.889 330.377L630.708 327.181C653.128 318.014 672.774 297.748 678.663 277.713C681.94 266.565 679.98 250.233 674.661 244.355C673.214 242.757 673.133 241.837 674.104 237.985C675.523 232.345 675.556 222.978 674.171 217.993C673.59 215.902 671.759 212.646 670.1 210.758C664.774 204.691 657.56 203.879 648.781 208.357C645.393 210.086 644.212 210.208 639.879 209.279C633.905 207.998 628.582 207.935 622.949 209.271C618.435 210.342 613.722 212.312 608.317 215.275C601.734 218.884 600.868 219.1 595.102 218.576C591.463 218.244 586.716 218.551 583.529 219.324C580.559 220.045 573.372 220.692 567.561 220.762C558.392 220.873 556.137 221.261 550.51 223.694C544.226 226.411 543.783 226.461 536.173 225.348C521.79 223.246 483.696 212.921 480.814 210.345C480.424 209.998 481.556 206.788 483.329 203.214C487.634 194.534 488.38 182.985 485.127 175.411C483.545 171.728 482.909 167.783 482.628 159.905C482.421 154.093 481.536 147.074 480.663 144.307C478.425 137.215 473.742 130.257 469.175 127.234C465.183 124.593 454.11 121.715 447.808 121.681C445.007 121.665 443.501 120.827 440.452 117.587C435.046 111.842 427.122 107.044 417.949 103.961C410.878 101.585 407.794 101.223 387.843 100.421L365.616 99.5283L357.15 94.4072C324.239 74.496 289.273 61.5738 255.203 56.7293C240.617 54.6563 234.926 54.7881 232.455 57.2597ZM244.531 66.0358C244.531 68.3232 270.492 100.14 278.911 108.17L284.28 113.292L294.344 112.482C299.878 112.036 309.615 111.711 315.98 111.76C327.539 111.849 327.558 111.845 333.432 108.262C336.667 106.29 340.624 104.388 342.227 104.036C346.898 103.009 346.554 101.915 340.393 98.204C317.844 84.6217 291.716 74.9398 261.135 68.8344C253.94 67.3984 247.26 66.06 246.292 65.8607C245.324 65.6615 244.531 65.741 244.531 66.0358ZM350.523 113.659C340.323 115.676 328.881 123.502 323.362 132.239C320.184 137.269 318.501 137.737 314.606 134.673C311.531 132.254 311.346 130.793 313.571 126.489L315.188 123.363L302.753 124.044C295.914 124.419 288.106 125.008 285.402 125.355L280.488 125.985L281.007 136.956C281.294 142.991 281.797 148.196 282.126 148.525C282.455 148.854 287.078 149.405 292.399 149.749C299.888 150.232 302.36 150.764 303.339 152.104C304.035 153.055 304.886 158.255 305.23 163.661C307.462 198.705 330.137 225.916 365.132 235.544C375.745 238.465 391.371 238.454 400.553 235.519C412.441 231.72 419.631 223.014 419.631 212.419C419.631 209.55 419.324 207.202 418.95 207.202C418.576 207.202 415.971 208.775 413.164 210.696C400.037 219.68 380.211 219.305 361.242 209.712C353.274 205.684 341.399 193.315 337.319 184.795C333.045 175.873 330.736 165.856 331.408 159.147C332.606 147.158 341.576 135.329 351.498 132.652C363.918 129.299 375.472 132.673 385.263 142.51C389.784 147.053 392.777 151.649 398.885 163.427C410.734 186.279 414.423 191.893 418.462 193.225C421.454 194.213 422.122 194.09 424.018 192.195C425.834 190.379 426.228 188.615 426.525 180.961C426.912 171.053 427.733 170.195 431.195 176.087C432.826 178.863 433.217 181.326 433.217 188.836V198.143L438.047 198.144C443.999 198.145 447.605 196.356 452.006 191.216C456.23 186.279 458.741 179.442 459.731 170.171C460.737 160.766 462.623 158.519 469 159.132L473.59 159.573L472.851 154.115C471.829 146.59 467.615 138.354 463.478 135.797C460.945 134.231 450.827 131.291 450.827 132.119C450.827 132.193 452.367 135.793 454.249 140.121C457.876 148.464 458.13 150.652 455.656 152.211C452.965 153.909 451.154 152.204 446.66 143.741C437.279 126.075 423.757 115.726 406.56 113.052L402.044 112.35L409.884 119.672C417.888 127.146 428.594 141.948 430.773 148.552C431.724 151.434 431.663 152.33 430.427 153.565C428.11 155.882 425.584 153.936 419.345 145.033C408.026 128.88 392.463 117.896 375.658 114.201C367.976 112.511 357.47 112.285 350.523 113.659ZM141.06 116.672C137.009 117.098 133.386 117.765 133.01 118.155C132.222 118.974 151.36 137.526 159.349 143.69L164.717 147.831L180.22 140.409C194.644 133.503 211.129 126.78 217.611 125.157C219.133 124.777 220.379 124.136 220.379 123.734C220.379 122.773 195.189 117.907 183.648 116.639C173.356 115.508 152.006 115.524 141.06 116.672ZM258.116 128.818C229.277 133.9 207.296 140.672 186.667 150.829C173.155 157.482 151.491 170.607 148.421 174C146.556 176.062 146.414 177.651 146.414 196.491C146.414 213.802 146.75 218.33 148.713 227.495C154.593 254.947 163.625 272.915 180.243 290.224C184.759 294.928 188.78 298.778 189.179 298.778C189.577 298.778 187.873 294.867 185.392 290.088C182.91 285.308 179.744 278.629 178.355 275.245C174.593 266.081 166.472 241.719 165.032 235.278L163.771 229.641L170.092 220.183C184.73 198.279 197.401 184.355 201.532 185.637C204.031 186.411 213.419 194.342 229.767 209.488L240.665 219.586L250.9 209.495C256.529 203.946 262.938 198.216 265.142 196.762C271.876 192.322 273.86 192.95 285.79 203.299C324.28 236.689 344.216 249.716 383.403 267.084C428.194 286.935 499.09 311.718 532.95 319.362C550.896 323.413 564.123 325.034 579.134 325.02C605.751 324.994 626.821 319.19 643.681 307.238C666.392 291.139 677.668 260.822 664.64 250.885C660.554 247.769 660.439 246.586 663.292 237.192C666.615 226.251 664.624 215.253 659.321 215.253C656.875 215.253 648.969 220.787 643.577 226.273C636.855 233.111 632.972 232.997 632.972 225.961C632.972 224.745 633.654 222.776 634.49 221.584C635.885 219.592 635.841 219.367 633.944 218.764C629.928 217.489 623.261 219.591 610.717 226.087L598.023 232.66L593.014 230.859C589.627 229.641 586.827 229.279 584.367 229.74C580.174 230.527 572.212 236.485 567.471 242.385C560.254 251.365 554.105 244.515 560.786 234.937C561.969 233.243 563.397 231.542 563.961 231.157C566.153 229.661 563.844 229.595 560.013 231.045C557.8 231.883 553.724 233.422 550.957 234.465C547.218 235.874 544.502 236.209 540.39 235.768C532.344 234.904 512.937 230.743 503.884 227.94L496.059 225.518L483.914 240.763C463.147 266.834 465.041 264.847 461.504 264.264C459.782 263.98 446.661 259.425 432.344 254.142L406.314 244.538L400.142 246.17C391.05 248.574 375.042 248.313 363.78 245.576C351.998 242.712 336.184 234.952 326.879 227.467C309.357 213.371 298.522 193.197 295.527 169.093L294.324 159.402L284.901 158.738C279.032 158.325 274.956 157.552 274.092 156.69C272.482 155.079 270.771 143.283 270.726 133.489C270.709 129.753 270.356 126.734 269.94 126.782C269.525 126.829 264.204 127.746 258.116 128.818ZM353.717 142.181C349.283 144.117 343.43 151.109 342.087 156.074C338.162 170.579 348.612 191.117 364.786 200.691C374.712 206.566 384.795 208.65 395.94 207.131C402.201 206.276 409.568 203.501 409.568 201.996C409.568 201.514 407.369 198.3 404.682 194.853C401.994 191.406 398.532 186.651 396.986 184.286L394.176 179.987L392.224 183.28C389.452 187.955 387.623 189.088 382.844 189.088C377.647 189.088 373.797 186.281 371.223 180.614C367.915 173.33 369.301 160.953 374.194 154.082L376.294 151.133L372.532 148.11C367.903 144.389 360.952 140.772 358.537 140.824C357.546 140.846 355.377 141.456 353.717 142.181ZM135.564 166.099C122.552 168.946 113.617 182.273 113.779 198.592C113.889 209.607 114.676 210.516 118.69 204.262C122.334 198.584 126.751 194.731 131.525 193.066C134.572 192.005 134.573 192.001 135.066 182.571C135.446 175.304 136.064 172.285 137.757 169.414C138.966 167.366 139.823 165.594 139.662 165.477C139.501 165.361 137.657 165.64 135.564 166.099ZM470.701 170.556C469.499 171.758 469.823 175.463 471.477 179.422C472.601 182.111 472.793 184.349 472.2 187.847L471.391 192.61H467.02C463.537 192.61 462.324 193.095 461.064 194.993C459.538 197.291 459.631 197.516 463.669 201.283C465.972 203.431 468.372 205.189 469.002 205.189C471.55 205.189 476.812 198.389 478.564 192.833C480.273 187.409 480.281 186.77 478.71 181.785C476.96 176.233 471.991 169.266 470.701 170.556ZM91.2784 193.004C85.2445 199.694 73.1847 216.271 67.4728 225.728C61.2859 235.97 46.1256 267.112 40.7277 280.664C35.9668 292.618 27.4865 317.673 26.5979 322.412L25.9297 325.972L32.5634 328.978C36.2113 330.633 39.3188 331.986 39.4698 331.987C39.6207 331.987 39.5855 327.929 39.3933 322.968C38.5057 300.116 47.8293 279.154 65.6463 263.947C75.5626 255.482 90.4502 249.573 102.136 249.466C105.919 249.43 106.347 249.108 109.272 244.102L112.383 238.777L108.438 234.814C104.077 230.432 99.48 222.148 97.57 215.228C96.8867 212.751 96.0494 205.786 95.7093 199.75L95.0914 188.777L91.2784 193.004ZM59.87 197.566C44.9221 202.088 32.3118 206.535 20.3718 211.495L13.0759 214.525V263.863C13.0759 291 13.252 313.013 13.4674 312.783C13.6827 312.551 15.5001 308.382 17.5047 303.516C34.7934 261.566 57.9067 216.22 70.6125 199.326C72.8295 196.378 74.4889 193.817 74.3007 193.635C74.1125 193.453 67.6187 195.222 59.87 197.566ZM193.625 204.975C190.257 209.244 184.49 217.09 180.812 222.411L174.124 232.083L179.853 249.581C184.254 263.024 188.05 271.976 196.233 288.211L206.885 309.344L214.889 312.552C229.862 318.552 240.311 321.168 251.323 321.676C256.996 321.937 261.638 321.909 261.638 321.613C261.638 321.317 259.323 317.078 256.493 312.191C253.663 307.304 247.927 296.74 243.747 288.714C238.653 278.934 235.622 274.153 234.553 274.215C233.675 274.267 228.768 274.92 223.645 275.666C213.323 277.172 209 276.437 208.519 273.096C207.98 269.347 225.685 238.272 232.727 230.609C234.77 228.386 234.772 228.327 232.871 226.192C230.211 223.204 200.916 197.13 200.271 197.176C199.984 197.197 196.993 200.707 193.625 204.975ZM450.698 204.85C448.304 207.751 440.702 210.486 435.171 210.435L429.955 210.389L429.367 215.351C428.66 221.322 424.671 229.651 420.385 234.106C418.662 235.896 417.448 237.54 417.687 237.757C417.926 237.974 426.273 241.165 436.236 244.847C446.198 248.529 455.39 251.981 456.661 252.517C460.464 254.123 461.404 253.704 464.884 248.858C466.715 246.309 471.999 239.446 476.627 233.607C481.255 227.768 485.042 222.711 485.042 222.368C485.042 222.026 481.533 220.451 477.243 218.869C467.245 215.182 462.363 212.321 457.416 207.252C452.918 202.644 452.61 202.534 450.698 204.85ZM256.905 216.612C251.957 221.789 244.933 229.988 241.296 234.834C234.96 243.276 221.04 265.559 221.693 266.213C221.866 266.385 226.962 265.88 233.017 265.089C239.073 264.298 249.349 263.337 255.852 262.952L267.676 262.254V234.728C267.676 219.509 267.28 207.202 266.789 207.202C266.3 207.202 261.853 211.437 256.905 216.612ZM275.727 231.774C275.727 244.826 275.845 255.506 275.991 255.506C276.421 255.506 301.891 230.422 301.891 229.998C301.891 229.441 277.781 208.777 276.663 208.376C276.103 208.175 275.727 217.577 275.727 231.774ZM135.675 244.194C133.644 247.371 131.212 251.606 130.272 253.606L128.563 257.241L135.109 263.787C142.414 271.092 148.667 282.42 151.647 293.746C153.898 302.304 153.867 320.839 151.584 330.305C147.654 346.611 140.005 360.287 127.999 372.473L120.333 380.254L127.503 378.225C132.964 376.679 135.595 375.274 138.537 372.332C142.058 368.812 143.034 368.404 149.506 367.754L156.612 367.041L157.883 360.835C161.035 345.437 170.301 321.426 177.479 310.055L180.091 305.918L172.795 298.526C168.782 294.462 163.321 288.083 160.659 284.353C153.045 273.683 140.879 246.653 140.879 240.407C140.879 237.135 139.588 238.074 135.675 244.194ZM313.377 243.486C313.74 246.499 314.29 251.115 314.599 253.745C314.909 256.374 315.325 258.525 315.523 258.525C315.721 258.525 318.861 256.443 322.501 253.899L329.117 249.274L323.376 245.251C320.218 243.039 316.528 240.504 315.177 239.619L312.718 238.008L313.377 243.486ZM292.026 251.831C286.382 257.559 281.765 262.54 281.765 262.9C281.765 263.261 284.143 263.579 287.048 263.608C289.953 263.637 295.414 264.002 299.184 264.421C302.953 264.84 306.175 264.93 306.344 264.621C306.563 264.22 304.524 244.648 303.952 241.669C303.716 240.438 300.823 242.902 292.026 251.831ZM595.225 255.818C588.668 262.375 588.537 271.344 594.888 279.033C600.151 285.406 610.384 288.628 615.931 285.66C619.739 283.622 618.299 280.929 612.501 279.244C600.781 275.836 596.144 267.734 600.266 257.867C601.097 255.879 601.776 253.856 601.776 253.37C601.776 251.406 598.359 252.683 595.225 255.818ZM619.094 253.517C610.491 255.452 606.255 266.201 612.486 270.284C614.714 271.744 615.425 271.667 622.327 269.217C630.733 266.232 632.453 266.08 635.941 268.011C641.44 271.057 642.178 266.31 637.236 259.676C633.503 254.666 625.724 252.026 619.094 253.517ZM326.237 260.659C322.193 263.481 319.09 265.997 319.343 266.248C319.803 266.709 337.439 269.523 337.817 269.197C338.311 268.772 334.864 255.507 334.263 255.517C333.893 255.523 330.282 257.836 326.237 260.659ZM346.399 263.556C347.558 268.124 348.038 268.332 351.307 265.686L353.647 263.791L350.16 261.664C348.241 260.495 346.381 259.537 346.025 259.535C345.668 259.533 345.837 261.342 346.399 263.556ZM93.5819 261.642C77.1365 264.853 59.9757 281.352 53.2132 300.452C50.5685 307.922 49.523 326.333 51.2035 335.854C51.9734 340.216 52.076 344.183 51.4974 347.225L50.6098 351.899L61.2779 356.931C67.1457 359.699 74.5825 362.983 77.8047 364.229C86.1774 367.465 86.6886 368.599 85.5414 381.335C84.1848 396.386 84.0158 395.385 87.9263 395.385C91.3136 395.385 91.3458 395.34 96.0917 383.88C101.016 371.988 102.694 369.693 108.677 366.669C113.88 364.04 124.737 352.548 129.081 345.069C137.558 330.473 140.886 311.025 137.381 296.553C133.879 282.092 125.453 269.528 116.036 264.724C113.891 263.629 109.463 262.239 106.196 261.635C99.5856 260.414 99.8754 260.414 93.5819 261.642ZM251.323 272.267C249.248 272.525 247.55 272.901 247.55 273.103C247.55 273.965 259.918 297.214 266.294 308.338L273.216 320.414L313.467 320.525C392.217 320.744 429.928 324.451 444.789 333.435C458.385 341.653 472.747 347.681 487.055 351.172C495.176 353.153 499.19 353.501 513.723 353.477C528.844 353.453 531.94 353.151 540.39 350.881C550.639 348.127 563.178 342.586 568.029 338.669L571.012 336.259L563.5 335.541C535.82 332.89 509.797 326.47 461.897 310.473C424.931 298.129 406.675 292.851 381.399 287.207C360.272 282.488 327.998 277.035 307 274.635C290.023 272.694 258.645 271.359 251.323 272.267ZM87.5379 282.558C75.6431 286.425 65.6282 299.916 63.5411 314.879C60.659 335.553 70.5934 351.149 86.604 351.084C93.916 351.055 99.174 348.489 104.844 342.182C124.676 320.124 118.536 283.634 94.7241 282.047C92.159 281.876 88.9246 282.106 87.5379 282.558ZM89.7085 292.717C87.8549 293.165 84.6387 295.192 82.5616 297.22C71.327 308.191 69.3083 328.076 78.4961 337.264C81.7727 340.54 82.8937 341.043 86.919 341.043C90.8376 341.043 92.1901 340.478 95.5694 337.424C102.858 330.839 106.625 322.073 106.787 311.324C106.984 298.174 99.7446 290.286 89.7085 292.717ZM181.282 325.194C175.975 335.852 169.925 352.962 167.582 363.937L166.884 367.208H195.131H223.38L228.366 357.27C231.109 351.805 234.055 346.63 234.913 345.773C236.259 344.428 239.635 344.273 259.371 344.649L282.268 345.086L263.148 340.192C231.315 332.047 215.613 326.626 197.498 317.527C192.393 314.963 188.038 312.866 187.818 312.866C187.599 312.866 184.658 318.413 181.282 325.194ZM185.56 337.421C181.221 341.76 180.851 346.892 184.609 350.649C187.434 353.474 189.821 353.72 194.683 351.689C200.774 349.144 203.037 341.563 199.173 336.651C195.968 332.576 190.07 332.91 185.56 337.421ZM597.101 337.908C585.717 340.36 584.371 340.908 577.477 345.907C561.584 357.43 542.993 363.85 522.112 365.022L510.067 365.698L516.875 370.169C534.878 381.99 550.074 400.884 557.924 421.211C564.577 438.439 567.903 464.336 563.967 468.272C559.85 472.388 554.514 469.241 539.75 453.992C529.062 442.953 528.304 442.38 523.352 441.597C520.497 441.145 517.207 440.474 516.041 440.104C514.473 439.606 514.078 439.788 514.525 440.805C527.202 469.682 528.343 474.462 523.009 476.327C520.195 477.31 516.795 476.682 493.093 470.806C471.095 465.353 466.707 463.029 451.617 448.845C442.876 440.629 436.72 435.638 435.326 435.638C434.996 435.638 434.726 436.378 434.726 437.284C434.726 438.662 433.97 438.827 430.092 438.296C426.596 437.817 425.588 437.967 425.987 438.913C426.278 439.603 427.998 443.45 429.809 447.462C432.506 453.44 432.927 455.259 432.135 457.525C431.343 459.79 430.474 460.35 427.361 460.608C421.04 461.132 407.893 455.879 392.964 446.865C387.601 443.627 386.29 443.256 381.236 443.542C378.106 443.718 374.558 443.334 373.35 442.687C372.143 442.041 370.994 441.674 370.798 441.87C369.684 442.983 375.195 455.068 382.41 467.337C395.515 489.619 397.931 494.757 396.638 497.595C394.364 502.586 388.322 501.776 371.97 494.287C366.512 491.788 359.46 488.282 356.3 486.496C352.272 484.218 348.736 483.082 344.474 482.696C341.13 482.393 336.294 481.215 333.728 480.08C331.161 478.945 329.062 478.244 329.062 478.522C329.062 478.8 331.828 485.001 335.21 492.302C345.685 514.921 346.757 518.6 343.626 521.198C341.844 522.677 337.6 522.966 334.345 521.83L332.081 521.04V542.744C332.081 554.681 332.478 564.447 332.964 564.447C333.449 564.447 334.426 563.751 335.132 562.899C337.222 560.38 352.086 550.94 360.761 546.619C401.763 526.203 455.191 521.247 525.798 531.31C553.914 535.317 596.436 545.174 610.078 550.848C611.749 551.543 611.839 546.032 611.839 443.293C611.839 357.262 611.581 335.034 610.581 335.14C609.89 335.215 603.824 336.459 597.101 337.908ZM20.728 345.823C18.9337 355.609 15.5917 379.22 14.5572 389.416L13.887 396.027L24.5299 399.098L35.1728 402.169L35.6971 399.029C36.5535 393.891 40.4087 346.057 40.0514 344.986C39.7556 344.099 24.6054 337.018 23.0023 337.018C22.639 337.018 21.6156 340.981 20.728 345.823ZM330.823 342.035C327.64 344.344 325.037 346.541 325.037 346.916C325.037 347.291 330.05 349.729 336.178 352.333C349.711 358.084 365.516 367.368 376.316 375.907L384.348 382.258L396.706 376.636C409.964 370.604 438.965 358.836 450.072 354.981C453.808 353.684 456.863 352.395 456.86 352.116C456.858 351.837 452.592 349.44 447.381 346.788C438.11 342.072 437.58 341.935 422.981 340.494C414.774 339.684 391.982 338.755 372.334 338.429L336.609 337.836L330.823 342.035ZM191.699 343.056C191.356 343.609 191.557 344.062 192.142 344.062C192.728 344.062 193.208 343.609 193.208 343.056C193.208 342.502 193.009 342.05 192.764 342.05C192.52 342.05 192.041 342.502 191.699 343.056ZM234.971 364.199C229.689 375.05 227.301 377.271 220.914 377.271C217.619 377.271 217.767 378.219 221.529 381.195L224.581 383.609L238.33 376.947C253.295 369.696 261.757 366.187 280.255 359.564L292.331 355.24L282.268 355.174C276.733 355.138 264.959 354.828 256.103 354.485L240.002 353.861L234.971 364.199ZM465.292 360.932C458.755 361.987 456.176 371.528 461.249 375.892C465.102 379.206 469.375 379.005 473.044 375.336C479.319 369.06 474.173 359.498 465.292 360.932ZM288.306 367.656C250.207 380.926 226.399 392.539 209.09 406.293C202.009 411.92 192.202 423.361 192.202 425.993C192.202 426.686 195.381 427.974 199.498 428.95C208.715 431.136 215.347 434.097 215.347 436.026C215.347 436.847 214.894 438.711 214.34 440.168C213.55 442.247 212.882 442.674 211.236 442.152C210.083 441.786 204.355 440.405 198.506 439.084C186.068 436.273 184.142 434.943 184.173 429.192C184.23 418.682 198.221 400.036 212.282 391.73C213.979 390.728 215.232 389.505 215.068 389.013C214.904 388.521 212.265 386.723 209.203 385.02L203.636 381.922L199.998 384.697C194.822 388.645 184.288 402.228 179.992 410.494C177.981 414.363 175.125 421.49 173.646 426.331C170.345 437.133 169.909 437.975 167.245 438.634C165.162 439.15 165.18 439.264 168.193 444.469C177.077 459.82 191.623 468.889 203.261 466.333L206.456 465.631L204.493 463.465C203.413 462.274 202.238 460.067 201.883 458.563C201.36 456.352 201.726 455.505 203.784 454.156C206.25 452.54 206.5 452.599 211.672 456.034C222.189 463.017 232.223 467.088 241.733 468.23L246.484 468.8L245.903 465.897C245.452 463.642 245.78 462.749 247.377 461.895C248.506 461.29 250.138 460.796 251.003 460.796C253.079 460.796 261.974 467.059 267.788 472.615L272.429 477.05L279.101 469.624C282.771 465.54 288.527 460.416 291.893 458.238L298.013 454.277L294.166 450.911C277.471 436.303 275.268 433.504 279.257 431.974C284.154 430.094 292.991 435.07 308.874 448.65C314.098 453.117 318.853 456.767 319.44 456.761C320.027 456.756 323.303 453.658 326.718 449.877C330.135 446.098 336.118 440.825 340.017 438.161L347.105 433.318L344.377 430.195C339.568 424.689 324.776 411.654 316.734 405.836C309.088 400.303 307.655 398.074 310.143 395.586C313.403 392.327 319.846 395.16 335.331 406.664C341.271 411.076 346.557 414.532 347.079 414.344C347.601 414.156 350.331 410.832 353.143 406.958C355.956 403.083 361.246 396.891 364.9 393.199C368.553 389.506 371.274 386.05 370.947 385.52C370.102 384.153 353.821 373.132 346.924 369.259L341.138 366.009L341.134 371.389C341.128 381.075 334.336 387.942 323.675 389.042C309.911 390.463 298.59 378.062 303.319 366.745C304.195 364.65 304.91 362.766 304.91 362.557C304.91 361.914 303.882 362.23 288.306 367.656ZM314.896 365.118C313.278 366.736 311.954 368.97 311.954 370.084C311.954 379.571 323.321 383.502 329.505 376.153C332.891 372.129 332.779 368.757 329.139 365.118C326.832 362.811 325.296 362.176 322.018 362.176C318.739 362.176 317.203 362.811 314.896 365.118ZM47.8817 385.366C46.8924 397.606 45.9344 408.829 45.7513 410.308C45.0277 416.146 44.1532 431.057 44.5618 430.594C53.7737 420.149 54.2024 419.483 55.3536 413.812C56.8027 406.666 59.7493 399.701 62.6102 396.655C64.3079 394.849 65.8446 394.379 70.0631 394.379C75.2748 394.379 75.3875 394.315 75.9269 391.108C76.2288 389.309 76.5891 384.97 76.727 381.465L76.9775 375.093L64.3985 369.569C57.48 366.531 51.3374 363.835 50.7487 363.578C50.0392 363.268 49.0721 370.619 47.8817 385.366ZM485.042 370.581C485.042 374.505 484.427 376.876 482.778 379.312C477.649 386.887 465.542 389.622 457.368 385.049C452.463 382.305 448.532 375.376 449.07 370.418C449.408 367.292 449.273 367.127 446.866 367.731C444.579 368.305 393.534 389.228 392.575 389.985C392.362 390.154 394.692 392.998 397.755 396.306C403.361 402.362 411.749 413.959 416.921 422.807C418.459 425.436 420.037 427.585 420.428 427.582C420.82 427.579 422.499 426.487 424.16 425.156L427.179 422.734L425.032 420.381C419.84 414.688 418.169 408.356 420.121 401.781C423.563 390.192 436.507 384.304 447.536 389.311C453.491 392.014 456.078 396.452 455.586 403.119C454.962 411.568 449.107 418.177 439.818 420.919L435.732 422.126L440.512 425.721C443.142 427.698 448.986 432.52 453.5 436.437L461.707 443.558L462.891 440.698C464.336 437.211 478.292 423.474 482.685 421.215L485.863 419.581L478.046 411.974C473.474 407.524 467.584 402.988 463.851 401.042C453.804 395.804 453.15 391.975 462.327 392.114C472.291 392.265 476.811 394.933 494.015 410.824C498.128 414.624 498.539 414.79 499.549 413.06C502.229 408.468 512.284 396.499 516.807 392.519L521.771 388.148L518.753 385.665C513.036 380.959 504.272 375.26 495.021 370.235C489.92 367.462 485.588 365.195 485.394 365.195C485.2 365.195 485.042 367.618 485.042 370.581ZM150.439 379.101C144.672 380.261 130.039 396.804 124.02 408.97C121.359 414.349 116.727 426.576 116.727 428.221C116.727 428.565 121.37 428.578 127.042 428.249C132.715 427.92 143.244 427.625 150.439 427.591L163.521 427.532L166.892 417.041C170.624 405.422 176.964 394.247 185.063 385.012C187.883 381.796 190.189 378.938 190.189 378.66C190.189 378.079 153.496 378.488 150.439 379.101ZM276.733 386.807C267.326 389.836 260.431 400.243 262.569 408.185C264.971 417.106 272.174 422.001 282.849 421.966C288.225 421.948 290.354 421.426 294.178 419.183C304 413.427 307.085 401.779 301.014 393.372C296.496 387.116 285.231 384.071 276.733 386.807ZM110.323 396.156C105.417 398.768 97.9946 403.738 93.8294 407.202C89.6643 410.665 86.0626 413.499 85.8272 413.499C83.7048 413.499 81.506 410.98 81.506 408.549C81.506 405.356 79.7238 404.479 73.1787 404.456C68.8615 404.44 68.7327 404.651 65.2076 417.524C62.8256 426.223 62.5368 426.703 54.8585 434.696L49.1204 440.669H55.0527C62.0256 440.669 68.3543 444.04 72.3565 449.885C74.673 453.269 74.9598 453.388 78.8976 452.625C81.1618 452.186 92.7124 451.807 104.563 451.783L126.111 451.739L130.727 454.716C133.267 456.353 139.411 461.787 144.38 466.792L153.416 475.891L173.564 475.858L193.711 475.823L187.84 473.804C180.202 471.176 175.76 468.249 169.402 461.651C163.856 455.895 156.282 444.764 155.329 440.966L154.749 438.657H131.366C101.033 438.657 102.228 439.6 108.287 420.457C111.808 409.337 115.338 401.421 119.805 394.63C122.758 390.141 121.126 390.404 110.323 396.156ZM374.65 396.633C369.61 401.825 356.233 419.579 356.233 421.075C356.233 423.564 363.974 429.481 369.246 431.022C372.252 431.9 374.813 432.619 374.937 432.619C375.061 432.619 374.922 429.975 374.629 426.745C373.762 417.175 378.3 410.477 387.908 407.151L391.726 405.828L385.961 399.349C382.791 395.785 379.884 392.751 379.504 392.607C379.124 392.462 376.939 394.274 374.65 396.633ZM277.049 397.347C271.043 401.009 270.229 405.137 274.643 409.551C279.74 414.648 290.206 413.31 293.173 407.182C294.93 403.555 293.795 399.191 290.494 396.878C287.513 394.79 280.862 395.023 277.049 397.347ZM525.283 397.771C521.207 400.551 515.38 407.316 509.282 416.352L504.978 422.726L507.337 425.287C509.874 428.039 515.028 430.606 518.017 430.606C519.527 430.606 519.786 429.976 519.453 427.118C518.904 422.421 522.326 415.635 526.754 412.638C528.681 411.335 532.529 409.977 535.306 409.619L540.357 408.97L535.295 402.429C532.511 398.832 529.909 395.773 529.514 395.632C529.117 395.491 527.213 396.454 525.283 397.771ZM434.925 398.075C429.325 400.834 426.985 407.621 430.529 410.827C435.456 415.286 445.796 409.465 445.796 402.231C445.796 400.182 445.023 399.062 442.827 397.927C439.186 396.044 439.04 396.047 434.925 398.075ZM13.0759 478.347C13.0759 518.507 13.4653 551.365 13.9413 551.365C14.4183 551.365 21.0973 549.809 28.7846 547.908C66.4403 538.597 117.77 530.404 158.384 527.223C187.187 524.967 223.783 526.626 248.206 531.294C277.049 536.808 297.005 545.087 315.202 559.089L321.011 563.559V540.354C321.011 527.592 321.065 516.819 321.13 516.415C321.195 516.01 317.388 513.709 312.668 511.3C306.287 508.044 302.217 506.686 296.791 506.005C287.538 504.844 284.887 503.224 269.747 489.481L257.558 478.417L247.774 478.721C237.845 479.029 226.072 476.877 219.847 473.616C217.415 472.342 216.994 472.476 213.706 475.578C211.764 477.409 208.175 480.079 205.731 481.512C196.606 486.859 195.539 486.935 130.021 486.948C69.8578 486.96 69.3144 486.979 65.113 489.132C59.9807 491.764 51.2086 492.047 46.7878 489.725C42.1698 487.299 37.4823 481.898 35.7615 477.019C34.0085 472.052 33.771 462.403 35.2442 456.02C36.1087 452.272 35.9738 451.491 34.1443 449.662C32.1699 447.688 32.1025 446.954 32.8824 435.821C33.3352 429.355 33.7056 421.191 33.7056 417.678V411.291L24.4001 408.934C19.2829 407.638 14.6407 406.296 14.0852 405.953C13.414 405.538 13.0759 429.758 13.0759 478.347ZM387.099 417.567C385.661 418.698 384.212 421.08 383.877 422.862C382.8 428.606 384.539 430.856 394.497 436.604C404.724 442.506 417.119 448.72 418.666 448.72C420.623 448.72 404.263 419.654 400.682 416.769C398.15 414.729 390.106 415.202 387.099 417.567ZM533.421 420.239C531.525 421.236 529.534 422.775 528.997 423.658C527.542 426.044 529.008 430.372 532.114 432.866C533.622 434.077 539.238 439.607 544.594 445.154C549.95 450.702 554.66 454.913 555.059 454.514C557.134 452.437 549.818 424.114 546.41 421.029C543.603 418.489 537.457 418.115 533.421 420.239ZM240.553 422.863C232.817 425.329 226.363 435.567 227.961 442.841C228.821 446.753 234.065 452.68 238.193 454.405C245.592 457.496 257.024 454.861 261.635 448.999C266.905 442.299 266.646 433.819 260.979 427.547C255.891 421.916 248.698 420.266 240.553 422.863ZM487.001 429.458C482.34 432.455 467.935 446.798 467.935 448.442C467.935 448.961 469.921 450.811 472.348 452.555L476.762 455.725L477.847 451.419C480.267 441.807 488.441 435.186 496.89 435.992C500.727 436.358 501.057 436.226 499.961 434.762C497.762 431.826 492.713 426.581 492.087 426.581C491.749 426.581 489.461 427.875 487.001 429.458ZM244.816 431.316C242.05 431.846 237.486 437.12 237.486 439.786C237.486 443.106 241.953 446.707 246.071 446.707C250.541 446.707 255.6 442.207 255.6 438.231C255.6 435.718 252.53 431.613 250.651 431.613C250.143 431.613 249.123 431.45 248.387 431.25C247.649 431.052 246.043 431.081 244.816 431.316ZM346.401 445.706C343.081 447.923 337.122 452.739 333.158 456.41L325.95 463.083L328.261 465.561C330.705 468.182 339.139 472.872 341.411 472.872C342.286 472.872 342.843 471.374 342.999 468.595C343.422 461.166 349.861 453.862 357.458 452.194L360.275 451.575L358.517 448.387C356.335 444.432 354.141 441.676 353.172 441.676C352.768 441.676 349.721 443.489 346.401 445.706ZM489.08 447.501C487.578 448.717 486.686 450.805 486.334 453.926C485.824 458.455 485.883 458.571 489.201 459.613C497.971 462.365 513.318 466.064 513.832 465.55C514.605 464.778 509.275 452.663 507.266 450.624C505.144 448.471 497.789 445.701 494.191 445.701C492.603 445.701 490.302 446.511 489.08 447.501ZM49.3076 453.593C40.5144 462.387 44.9472 480.922 55.8447 480.922C60.2162 480.922 62.7843 478.741 65.3032 472.886C66.9143 469.139 67.3208 466.788 66.8318 464.038C65.5074 456.586 59.9968 450.733 54.3081 450.733C53.1307 450.733 50.8805 452.02 49.3076 453.593ZM355.149 463.737C352.996 465.89 352.207 467.643 352.207 470.273V473.865L367.41 481.48C375.771 485.667 382.826 488.88 383.086 488.619C383.71 487.996 370.569 466.389 367.65 463.24C364.353 459.682 358.992 459.895 355.149 463.737ZM86.286 462.596L77.4807 462.887V467.797C77.4807 470.498 77.206 473.423 76.8699 474.299C76.3214 475.729 79.3625 475.891 106.781 475.891H137.303L130.306 468.84L123.309 461.788L109.2 462.047C101.44 462.189 91.1295 462.436 86.286 462.596ZM298.246 465.817C292.644 469.478 288.913 472.906 281.262 481.426L278.551 484.445L282.924 488.326C287.118 492.048 293.72 496.017 295.717 496.017C296.241 496.017 296.435 494.279 296.15 492.156C295.497 487.284 297.632 482.977 302.566 479.214C305.623 476.882 307.263 476.394 312.036 476.394H317.809L316.14 473.514C313.687 469.283 306.936 461.802 305.571 461.802C304.921 461.802 301.625 463.609 298.246 465.817ZM308.321 485.934C307.152 486.406 305.943 487.455 305.632 488.264C304.95 490.039 306.488 497.376 307.624 497.774C308.069 497.93 313.832 500.992 320.433 504.577C327.033 508.162 332.586 510.942 332.773 510.755C333.243 510.285 324.433 491.855 322.82 489.933C319.015 485.399 313.446 483.863 308.321 485.934ZM163.018 538.005C118.812 540.955 55.1403 551.186 16.8959 561.484L13.0759 562.512V581.594C13.0759 592.758 13.4664 600.675 14.0168 600.675C14.5341 600.675 16.0254 600.27 17.3296 599.773C21.5683 598.161 54.4882 590.79 73.6687 587.158C96.7327 582.79 121.751 579.186 144.904 576.898C166.758 574.737 214.993 574.43 229.939 576.356C256.772 579.815 279.426 586.16 300.382 596.085C315.056 603.035 323.147 605.134 331.9 604.259C338.524 603.597 349.25 600.033 354.639 596.702C363.581 591.175 389.709 583.004 411.024 579.067C444.798 572.829 480.148 573.468 527.308 581.168C554.371 585.586 587.344 593.174 603.192 598.629C606.46 599.754 609.753 600.675 610.509 600.675C611.631 600.675 611.832 597.16 611.61 581.473L611.336 562.272L596.241 557.405C548.353 541.966 472.751 533.593 428.244 538.798C389.332 543.351 359.663 555.133 337.986 574.642C327.764 583.842 326.359 583.86 316.645 574.927C302.367 561.796 290.256 554.468 273.714 548.951C250.548 541.225 219.208 537.064 187.17 537.461C176.377 537.595 165.509 537.839 163.018 538.005ZM457.143 554.437C449.823 554.854 439.86 555.701 435.004 556.32C423.606 557.772 398.273 562.544 398.858 563.129C399.105 563.377 401.931 563.095 405.138 562.501C408.345 561.908 419.597 560.925 430.143 560.315C474.718 557.739 527.704 563.463 585.576 577.105C591.333 578.462 596.22 579.395 596.437 579.179C596.654 578.963 597.092 577.176 597.411 575.21C598.087 571.046 599.936 571.8 574.815 565.998C545.578 559.246 523.987 556.022 497.118 554.399C479.074 553.308 476.949 553.31 457.143 554.437Z" fill="black"/>
<path d="M330.823 342.035C327.64 344.344 325.037 346.541 325.037 346.916C325.037 347.291 330.05 349.729 336.178 352.333C349.711 358.084 365.516 367.368 376.316 375.907L384.348 382.258L396.706 376.636C409.964 370.604 438.965 358.836 450.072 354.981C453.808 353.684 456.863 352.395 456.86 352.116C456.858 351.837 452.592 349.44 447.381 346.788C438.11 342.072 437.58 341.935 422.981 340.494C414.774 339.684 391.982 338.755 372.334 338.429L336.609 337.836L330.823 342.035Z" fill="#E43437"/>
<path fill-rule="evenodd" clip-rule="evenodd" d="M163.018 538.005C118.812 540.955 55.1403 551.186 16.8959 561.484L13.0759 562.512V581.594C13.0759 592.758 13.4664 600.675 14.0168 600.675C14.5341 600.675 16.0254 600.27 17.3296 599.773C21.5683 598.161 54.4882 590.79 73.6687 587.158C96.7327 582.79 121.751 579.186 144.904 576.898C166.758 574.737 214.993 574.43 229.939 576.356C256.772 579.815 279.426 586.16 300.382 596.085C315.056 603.035 323.147 605.134 331.9 604.259C338.524 603.597 349.25 600.033 354.639 596.702C363.581 591.175 389.709 583.004 411.024 579.067C444.798 572.829 480.148 573.468 527.308 581.168C554.371 585.586 587.344 593.174 603.192 598.629C606.46 599.754 609.753 600.675 610.509 600.675C611.631 600.675 611.832 597.16 611.61 581.473L611.336 562.272L596.241 557.405C548.353 541.966 472.751 533.593 428.244 538.798C389.332 543.351 359.663 555.133 337.986 574.642C327.764 583.842 326.359 583.86 316.645 574.927C302.367 561.796 290.256 554.468 273.714 548.951C250.548 541.225 219.208 537.064 187.17 537.461C176.377 537.595 165.509 537.839 163.018 538.005ZM435.004 556.32C439.86 555.701 449.823 554.854 457.143 554.437C476.949 553.31 479.074 553.308 497.118 554.399C523.987 556.022 545.578 559.246 574.815 565.998C599.936 571.8 598.087 571.046 597.411 575.21C597.092 577.176 596.654 578.963 596.437 579.179C596.22 579.395 591.333 578.462 585.576 577.105C527.704 563.463 474.718 557.739 430.143 560.315C419.597 560.925 408.345 561.908 405.138 562.501C401.931 563.095 399.105 563.377 398.858 563.129C398.273 562.544 423.606 557.772 435.004 556.32Z" fill="white"/>
<path d="M308.321 485.934C307.152 486.406 305.943 487.455 305.632 488.264C304.95 490.039 306.488 497.376 307.624 497.774C308.069 497.93 313.832 500.992 320.433 504.577C327.033 508.162 332.586 510.942 332.773 510.755C333.243 510.285 324.433 491.855 322.82 489.933C319.015 485.399 313.446 483.863 308.321 485.934Z" fill="white"/>
<path d="M355.149 463.737C352.996 465.89 352.207 467.643 352.207 470.273V473.865L367.41 481.48C375.771 485.667 382.826 488.88 383.086 488.619C383.71 487.996 370.569 466.389 367.65 463.24C364.353 459.682 358.992 459.895 355.149 463.737Z" fill="white"/>
<path d="M387.099 417.567C385.661 418.698 384.212 421.08 383.877 422.862C382.8 428.606 384.539 430.856 394.497 436.604C404.724 442.506 417.119 448.72 418.666 448.72C420.623 448.72 404.263 419.654 400.682 416.769C398.15 414.729 390.106 415.202 387.099 417.567Z" fill="white"/>
<path d="M489.08 447.501C487.578 448.717 486.686 450.805 486.334 453.926C485.824 458.455 485.883 458.571 489.201 459.613C497.971 462.365 513.318 466.064 513.832 465.55C514.605 464.778 509.275 452.663 507.266 450.624C505.144 448.471 497.789 445.701 494.191 445.701C492.603 445.701 490.302 446.511 489.08 447.501Z" fill="white"/>
<path d="M533.421 420.239C531.525 421.236 529.534 422.775 528.997 423.658C527.542 426.044 529.008 430.372 532.114 432.866C533.622 434.077 539.238 439.607 544.594 445.154C549.95 450.702 554.66 454.913 555.059 454.514C557.134 452.437 549.818 424.114 546.41 421.029C543.603 418.489 537.457 418.115 533.421 420.239Z" fill="white"/>
<path d="M256.905 216.612C251.957 221.789 244.933 229.988 241.296 234.834C234.96 243.276 221.04 265.559 221.693 266.213C221.866 266.385 226.962 265.88 233.017 265.089C239.073 264.298 249.349 263.337 255.852 262.952L267.676 262.254V234.728C267.676 219.509 267.28 207.202 266.789 207.202C266.3 207.202 261.853 211.437 256.905 216.612Z" fill="white"/>
<path d="M275.727 231.774C275.727 244.826 275.845 255.506 275.991 255.506C276.421 255.506 301.891 230.422 301.891 229.998C301.891 229.441 277.781 208.777 276.663 208.376C276.103 208.175 275.727 217.577 275.727 231.774Z" fill="white"/>
<path d="M292.026 251.831C286.382 257.559 281.765 262.54 281.765 262.9C281.765 263.261 284.143 263.579 287.048 263.608C289.953 263.637 295.414 264.002 299.184 264.421C302.953 264.84 306.175 264.93 306.344 264.621C306.563 264.22 304.524 244.648 303.952 241.669C303.716 240.438 300.823 242.902 292.026 251.831Z" fill="white"/>
<path d="M313.377 243.486C313.74 246.499 314.29 251.115 314.599 253.745C314.909 256.374 315.325 258.525 315.523 258.525C315.721 258.525 318.861 256.443 322.501 253.899L329.117 249.274L323.376 245.251C320.218 243.039 316.528 240.504 315.177 239.619L312.718 238.008L313.377 243.486Z" fill="white"/>
<path d="M326.237 260.659C322.193 263.481 319.09 265.997 319.343 266.248C319.803 266.709 337.439 269.523 337.817 269.197C338.311 268.772 334.864 255.507 334.263 255.517C333.893 255.523 330.282 257.836 326.237 260.659Z" fill="white"/>
<path d="M346.399 263.556C347.558 268.124 348.038 268.332 351.307 265.686L353.647 263.791L350.16 261.664C348.241 260.495 346.381 259.537 346.025 259.535C345.668 259.533 345.837 261.342 346.399 263.556Z" fill="white"/>
<path d="M353.717 142.181C349.283 144.117 343.43 151.109 342.087 156.074C338.162 170.579 348.612 191.117 364.786 200.691C374.712 206.566 384.795 208.65 395.94 207.131C402.201 206.276 409.568 203.501 409.568 201.996C409.568 201.514 407.369 198.3 404.682 194.853C401.994 191.406 398.532 186.651 396.986 184.286L394.176 179.987L392.224 183.28C389.452 187.955 387.623 189.088 382.844 189.088C377.647 189.088 373.797 186.281 371.223 180.614C367.915 173.33 369.301 160.953 374.194 154.082L376.294 151.133L372.532 148.11C367.903 144.389 360.952 140.772 358.537 140.824C357.546 140.846 355.377 141.456 353.717 142.181Z" fill="white"/>
<path d="M470.701 170.556C469.499 171.758 469.823 175.463 471.477 179.422C472.601 182.111 472.793 184.349 472.2 187.847L471.391 192.61H467.02C463.537 192.61 462.324 193.095 461.064 194.993C459.538 197.291 459.631 197.516 463.669 201.283C465.972 203.431 468.372 205.189 469.002 205.189C471.55 205.189 476.812 198.389 478.564 192.833C480.273 187.409 480.281 186.77 478.71 181.785C476.96 176.233 471.991 169.266 470.701 170.556Z" fill="white"/>
<path d="M115.218 556.974C123.52 556.104 131.898 555.211 133.835 554.989C143.138 553.925 212.388 555.309 223.176 556.775C236.228 558.549 256.852 562.524 256.23 563.146C255.999 563.378 253.128 563.082 249.851 562.487C240.363 560.766 214.345 559.373 195.221 559.56C151.706 559.985 116.162 563.87 51.0747 575.315M232.455 57.2597C229.296 60.4185 229.863 65.2429 234.126 71.4871C239.205 78.9259 253.776 97.5278 261.374 106.276C264.84 110.265 267.676 113.913 267.676 114.382C267.676 114.851 262.553 116.066 256.291 117.084C244.949 118.926 244.879 118.925 238.428 116.819C222.142 111.503 200.097 107.142 181.997 105.659C161.177 103.953 129.605 106.171 121.813 109.887C119.766 110.864 119.181 111.96 118.939 115.275C118.658 119.112 119.11 119.975 124.741 126.337C131.431 133.898 144.264 145.63 150.172 149.584C152.238 150.968 153.719 152.44 153.461 152.854C153.205 153.27 148.57 153.685 143.164 153.776C119.77 154.173 107.091 159.038 92.0724 173.382C86.2236 178.967 85.6722 179.241 74.4909 182.145C59.3216 186.084 45.4916 190.411 30.8255 195.804C8.95097 203.848 4.09042 206.158 2.4803 209.271C1.1922 211.763 1 237.985 1 411.482V610.83L3.47053 613.299C6.52372 616.353 7.74238 616.355 22.1328 613.318C85.9217 599.856 180.703 594.87 233.262 602.212C257.48 605.594 274.362 610.083 304.43 621.134C318.093 626.155 331.011 626.806 345.075 623.183C348.167 622.386 356.358 619.525 363.277 616.824C385.609 608.106 405.409 603.244 429.694 600.517C444.427 598.862 500.292 598.867 520.767 600.524C553.636 603.185 580.725 607.236 604.021 612.975C615.18 615.724 617.152 615.96 619.314 614.803C620.679 614.072 622.055 612.797 622.372 611.971C622.69 611.144 622.936 547.448 622.919 470.422L622.889 330.377L630.708 327.181C653.128 318.014 672.774 297.748 678.663 277.713C681.94 266.565 679.98 250.233 674.661 244.355C673.214 242.757 673.133 241.837 674.104 237.985C675.523 232.345 675.556 222.978 674.171 217.993C673.59 215.902 671.759 212.646 670.1 210.758C664.774 204.691 657.56 203.879 648.781 208.357C645.393 210.086 644.212 210.208 639.879 209.279C633.905 207.998 628.582 207.935 622.949 209.271C618.435 210.342 613.722 212.312 608.317 215.275C601.734 218.884 600.868 219.1 595.102 218.576C591.463 218.244 586.716 218.551 583.529 219.324C580.559 220.045 573.372 220.692 567.561 220.762C558.392 220.873 556.137 221.261 550.51 223.694C544.226 226.411 543.783 226.461 536.173 225.348C521.79 223.246 483.696 212.921 480.814 210.345C480.424 209.998 481.556 206.788 483.329 203.214C487.634 194.534 488.38 182.985 485.127 175.411C483.545 171.728 482.909 167.783 482.628 159.905C482.421 154.093 481.536 147.074 480.663 144.307C478.425 137.215 473.742 130.257 469.175 127.234C465.183 124.593 454.11 121.715 447.808 121.681C445.007 121.665 443.501 120.827 440.452 117.587C435.046 111.842 427.122 107.044 417.949 103.961C410.878 101.585 407.794 101.223 387.843 100.421L365.616 99.5283L357.15 94.4072C324.239 74.496 289.273 61.5738 255.203 56.7293C240.617 54.6563 234.926 54.7881 232.455 57.2597ZM244.531 66.0358C244.531 68.3232 270.492 100.14 278.911 108.17L284.28 113.292L294.344 112.482C299.878 112.036 309.615 111.711 315.98 111.76C327.539 111.849 327.558 111.845 333.432 108.262C336.667 106.29 340.624 104.388 342.227 104.036C346.898 103.009 346.554 101.915 340.393 98.204C317.844 84.6217 291.716 74.9398 261.135 68.8344C253.94 67.3984 247.26 66.06 246.292 65.8607C245.324 65.6615 244.531 65.741 244.531 66.0358ZM350.523 113.659C340.323 115.676 328.881 123.502 323.362 132.239C320.184 137.269 318.501 137.737 314.606 134.673C311.531 132.254 311.346 130.793 313.571 126.489L315.188 123.363L302.753 124.044C295.914 124.419 288.106 125.008 285.402 125.355L280.488 125.985L281.007 136.956C281.294 142.991 281.797 148.196 282.126 148.525C282.455 148.854 287.078 149.405 292.399 149.749C299.888 150.232 302.36 150.764 303.339 152.104C304.035 153.055 304.886 158.255 305.23 163.661C307.462 198.705 330.137 225.916 365.132 235.544C375.745 238.465 391.371 238.454 400.553 235.519C412.441 231.72 419.631 223.014 419.631 212.419C419.631 209.55 419.324 207.202 418.95 207.202C418.576 207.202 415.971 208.775 413.164 210.696C400.037 219.68 380.211 219.305 361.242 209.712C353.274 205.684 341.399 193.315 337.319 184.795C333.045 175.873 330.736 165.856 331.408 159.147C332.606 147.158 341.576 135.329 351.498 132.652C363.918 129.299 375.472 132.673 385.263 142.51C389.784 147.053 392.777 151.649 398.885 163.427C410.734 186.279 414.423 191.893 418.462 193.225C421.454 194.213 422.122 194.09 424.018 192.195C425.834 190.379 426.228 188.615 426.525 180.961C426.912 171.053 427.733 170.195 431.195 176.087C432.826 178.863 433.217 181.326 433.217 188.836V198.143L438.047 198.144C443.999 198.145 447.605 196.356 452.006 191.216C456.23 186.279 458.741 179.442 459.731 170.171C460.737 160.766 462.623 158.519 469 159.132L473.59 159.573L472.851 154.115C471.829 146.59 467.615 138.354 463.478 135.797C460.945 134.231 450.827 131.291 450.827 132.119C450.827 132.193 452.367 135.793 454.249 140.121C457.876 148.464 458.13 150.652 455.656 152.211C452.965 153.909 451.154 152.204 446.66 143.741C437.279 126.075 423.757 115.726 406.56 113.052L402.044 112.35L409.884 119.672C417.888 127.146 428.594 141.948 430.773 148.552C431.724 151.434 431.663 152.33 430.427 153.565C428.11 155.882 425.584 153.936 419.345 145.033C408.026 128.88 392.463 117.896 375.658 114.201C367.976 112.511 357.47 112.285 350.523 113.659ZM141.06 116.672C137.009 117.098 133.386 117.765 133.01 118.155C132.222 118.974 151.36 137.526 159.349 143.69L164.717 147.831L180.22 140.409C194.644 133.503 211.129 126.78 217.611 125.157C219.133 124.777 220.379 124.136 220.379 123.734C220.379 122.773 195.189 117.907 183.648 116.639C173.356 115.508 152.006 115.524 141.06 116.672ZM258.116 128.818C229.277 133.9 207.296 140.672 186.667 150.829C173.155 157.482 151.491 170.607 148.421 174C146.556 176.062 146.414 177.651 146.414 196.491C146.414 213.802 146.75 218.33 148.713 227.495C154.593 254.947 163.625 272.915 180.243 290.224C184.759 294.928 188.78 298.778 189.179 298.778C189.577 298.778 187.873 294.867 185.392 290.088C182.91 285.308 179.744 278.629 178.355 275.245C174.593 266.081 166.472 241.719 165.032 235.278L163.771 229.641L170.092 220.183C184.73 198.279 197.401 184.355 201.532 185.637C204.031 186.411 213.419 194.342 229.767 209.488L240.665 219.586L250.9 209.495C256.529 203.946 262.938 198.216 265.142 196.762C271.876 192.322 273.86 192.95 285.79 203.299C324.28 236.689 344.216 249.716 383.403 267.084C428.194 286.935 499.09 311.718 532.95 319.362C550.896 323.413 564.123 325.034 579.134 325.02C605.751 324.994 626.821 319.19 643.681 307.238C666.392 291.139 677.668 260.822 664.64 250.885C660.554 247.769 660.439 246.586 663.292 237.192C666.615 226.251 664.624 215.253 659.321 215.253C656.875 215.253 648.969 220.787 643.577 226.273C636.855 233.111 632.972 232.997 632.972 225.961C632.972 224.745 633.654 222.776 634.49 221.584C635.885 219.592 635.841 219.367 633.944 218.764C629.928 217.489 623.261 219.591 610.717 226.087L598.023 232.66L593.014 230.859C589.627 229.641 586.827 229.279 584.367 229.74C580.174 230.527 572.212 236.485 567.471 242.385C560.254 251.365 554.105 244.515 560.786 234.937C561.969 233.243 563.397 231.542 563.961 231.157C566.153 229.661 563.844 229.595 560.013 231.045C557.8 231.883 553.724 233.422 550.957 234.465C547.218 235.874 544.502 236.209 540.39 235.768C532.344 234.904 512.937 230.743 503.884 227.94L496.059 225.518L483.914 240.763C463.147 266.834 465.041 264.847 461.504 264.264C459.782 263.98 446.661 259.425 432.344 254.142L406.314 244.538L400.142 246.17C391.05 248.574 375.042 248.313 363.78 245.576C351.998 242.712 336.184 234.952 326.879 227.467C309.357 213.371 298.522 193.197 295.527 169.093L294.324 159.402L284.901 158.738C279.032 158.325 274.956 157.552 274.092 156.69C272.482 155.079 270.771 143.283 270.726 133.489C270.709 129.753 270.356 126.734 269.94 126.782C269.525 126.829 264.204 127.746 258.116 128.818ZM353.717 142.181C349.283 144.117 343.43 151.109 342.087 156.074C338.162 170.579 348.612 191.117 364.786 200.691C374.712 206.566 384.795 208.65 395.94 207.131C402.201 206.276 409.568 203.501 409.568 201.996C409.568 201.514 407.369 198.3 404.682 194.853C401.994 191.406 398.532 186.651 396.986 184.286L394.176 179.987L392.224 183.28C389.452 187.955 387.623 189.088 382.844 189.088C377.647 189.088 373.797 186.281 371.223 180.614C367.915 173.33 369.301 160.953 374.194 154.082L376.294 151.133L372.532 148.11C367.903 144.389 360.952 140.772 358.537 140.824C357.546 140.846 355.377 141.456 353.717 142.181ZM135.564 166.099C122.552 168.946 113.617 182.273 113.779 198.592C113.889 209.607 114.676 210.516 118.69 204.262C122.334 198.584 126.751 194.731 131.525 193.066C134.572 192.005 134.573 192.001 135.066 182.571C135.446 175.304 136.064 172.285 137.757 169.414C138.966 167.366 139.823 165.594 139.662 165.477C139.501 165.361 137.657 165.64 135.564 166.099ZM470.701 170.556C469.499 171.758 469.823 175.463 471.477 179.422C472.601 182.111 472.793 184.349 472.2 187.847L471.391 192.61H467.02C463.537 192.61 462.324 193.095 461.064 194.993C459.538 197.291 459.631 197.516 463.669 201.283C465.972 203.431 468.372 205.189 469.002 205.189C471.55 205.189 476.812 198.389 478.564 192.833C480.273 187.409 480.281 186.77 478.71 181.785C476.96 176.233 471.991 169.266 470.701 170.556ZM91.2784 193.004C85.2445 199.694 73.1847 216.271 67.4728 225.728C61.2859 235.97 46.1256 267.112 40.7277 280.664C35.9668 292.618 27.4865 317.673 26.5979 322.412L25.9297 325.972L32.5634 328.978C36.2113 330.633 39.3188 331.986 39.4698 331.987C39.6207 331.987 39.5855 327.929 39.3933 322.968C38.5057 300.116 47.8293 279.154 65.6463 263.947C75.5626 255.482 90.4502 249.573 102.136 249.466C105.919 249.43 106.347 249.108 109.272 244.102L112.383 238.777L108.438 234.814C104.077 230.432 99.48 222.148 97.57 215.228C96.8867 212.751 96.0494 205.786 95.7093 199.75L95.0914 188.777L91.2784 193.004ZM59.87 197.566C44.9221 202.088 32.3118 206.535 20.3718 211.495L13.0759 214.525V263.863C13.0759 291 13.252 313.013 13.4674 312.783C13.6827 312.551 15.5001 308.382 17.5047 303.516C34.7934 261.566 57.9067 216.22 70.6125 199.326C72.8295 196.378 74.4889 193.817 74.3007 193.635C74.1125 193.453 67.6187 195.222 59.87 197.566ZM193.625 204.975C190.257 209.244 184.49 217.09 180.812 222.411L174.124 232.083L179.853 249.581C184.254 263.024 188.05 271.976 196.233 288.211L206.885 309.344L214.889 312.552C229.862 318.552 240.311 321.168 251.323 321.676C256.996 321.937 261.638 321.909 261.638 321.613C261.638 321.317 259.323 317.078 256.493 312.191C253.663 307.304 247.927 296.74 243.747 288.714C238.653 278.934 235.622 274.153 234.553 274.215C233.675 274.267 228.768 274.92 223.645 275.666C213.323 277.172 209 276.437 208.519 273.096C207.98 269.347 225.685 238.272 232.727 230.609C234.77 228.386 234.772 228.327 232.871 226.192C230.211 223.204 200.916 197.13 200.271 197.176C199.984 197.197 196.993 200.707 193.625 204.975ZM450.698 204.85C448.304 207.751 440.702 210.486 435.171 210.435L429.955 210.389L429.367 215.351C428.66 221.322 424.671 229.651 420.385 234.106C418.662 235.896 417.448 237.54 417.687 237.757C417.926 237.974 426.273 241.165 436.236 244.847C446.198 248.529 455.39 251.981 456.661 252.517C460.464 254.123 461.404 253.704 464.884 248.858C466.715 246.309 471.999 239.446 476.627 233.607C481.255 227.768 485.042 222.711 485.042 222.368C485.042 222.026 481.533 220.451 477.243 218.869C467.245 215.182 462.363 212.321 457.416 207.252C452.918 202.644 452.61 202.534 450.698 204.85ZM256.905 216.612C251.957 221.789 244.933 229.988 241.296 234.834C234.96 243.276 221.04 265.559 221.693 266.213C221.866 266.385 226.962 265.88 233.017 265.089C239.073 264.298 249.349 263.337 255.852 262.952L267.676 262.254V234.728C267.676 219.509 267.28 207.202 266.789 207.202C266.3 207.202 261.853 211.437 256.905 216.612ZM275.727 231.774C275.727 244.826 275.845 255.506 275.991 255.506C276.421 255.506 301.891 230.422 301.891 229.998C301.891 229.441 277.781 208.777 276.663 208.376C276.103 208.175 275.727 217.577 275.727 231.774ZM135.675 244.194C133.644 247.371 131.212 251.606 130.272 253.606L128.563 257.241L135.109 263.787C142.414 271.092 148.667 282.42 151.647 293.746C153.898 302.304 153.867 320.839 151.584 330.305C147.654 346.611 140.005 360.287 127.999 372.473L120.333 380.254L127.503 378.225C132.964 376.679 135.595 375.274 138.537 372.332C142.058 368.812 143.034 368.404 149.506 367.754L156.612 367.041L157.883 360.835C161.035 345.437 170.301 321.426 177.479 310.055L180.091 305.918L172.795 298.526C168.782 294.462 163.321 288.083 160.659 284.353C153.045 273.683 140.879 246.653 140.879 240.407C140.879 237.135 139.588 238.074 135.675 244.194ZM313.377 243.486C313.74 246.499 314.29 251.115 314.599 253.745C314.909 256.374 315.325 258.525 315.523 258.525C315.721 258.525 318.861 256.443 322.501 253.899L329.117 249.274L323.376 245.251C320.218 243.039 316.528 240.504 315.177 239.619L312.718 238.008L313.377 243.486ZM292.026 251.831C286.382 257.559 281.765 262.54 281.765 262.9C281.765 263.261 284.143 263.579 287.048 263.608C289.953 263.637 295.414 264.002 299.184 264.421C302.953 264.84 306.175 264.93 306.344 264.621C306.563 264.22 304.524 244.648 303.952 241.669C303.716 240.438 300.823 242.902 292.026 251.831ZM595.225 255.818C588.668 262.375 588.537 271.344 594.888 279.033C600.151 285.406 610.384 288.628 615.931 285.66C619.739 283.622 618.299 280.929 612.501 279.244C600.781 275.836 596.144 267.734 600.266 257.867C601.097 255.879 601.776 253.856 601.776 253.37C601.776 251.406 598.359 252.683 595.225 255.818ZM619.094 253.517C610.491 255.452 606.255 266.201 612.486 270.284C614.714 271.744 615.425 271.667 622.327 269.217C630.733 266.232 632.453 266.08 635.941 268.011C641.44 271.057 642.178 266.31 637.236 259.676C633.503 254.666 625.724 252.026 619.094 253.517ZM326.237 260.659C322.193 263.481 319.09 265.997 319.343 266.248C319.803 266.709 337.439 269.523 337.817 269.197C338.311 268.772 334.864 255.507 334.263 255.517C333.893 255.523 330.282 257.836 326.237 260.659ZM346.399 263.556C347.558 268.124 348.038 268.332 351.307 265.686L353.647 263.791L350.16 261.664C348.241 260.495 346.381 259.537 346.025 259.535C345.668 259.533 345.837 261.342 346.399 263.556ZM93.5819 261.642C77.1365 264.853 59.9757 281.352 53.2132 300.452C50.5685 307.922 49.523 326.333 51.2035 335.854C51.9734 340.216 52.076 344.183 51.4974 347.225L50.6098 351.899L61.2779 356.931C67.1457 359.699 74.5825 362.983 77.8047 364.229C86.1774 367.465 86.6886 368.599 85.5414 381.335C84.1848 396.386 84.0158 395.385 87.9263 395.385C91.3136 395.385 91.3458 395.34 96.0917 383.88C101.016 371.988 102.694 369.693 108.677 366.669C113.88 364.04 124.737 352.548 129.081 345.069C137.558 330.473 140.886 311.025 137.381 296.553C133.879 282.092 125.453 269.528 116.036 264.724C113.891 263.629 109.463 262.239 106.196 261.635C99.5856 260.414 99.8754 260.414 93.5819 261.642ZM251.323 272.267C249.248 272.525 247.55 272.901 247.55 273.103C247.55 273.965 259.918 297.214 266.294 308.338L273.216 320.414L313.467 320.525C392.217 320.744 429.928 324.451 444.789 333.435C458.385 341.653 472.747 347.681 487.055 351.172C495.176 353.153 499.19 353.501 513.723 353.477C528.844 353.453 531.94 353.151 540.39 350.881C550.639 348.127 563.178 342.586 568.029 338.669L571.012 336.259L563.5 335.541C535.82 332.89 509.797 326.47 461.897 310.473C424.931 298.129 406.675 292.851 381.399 287.207C360.272 282.488 327.998 277.035 307 274.635C290.023 272.694 258.645 271.359 251.323 272.267ZM87.5379 282.558C75.6431 286.425 65.6282 299.916 63.5411 314.879C60.659 335.553 70.5934 351.149 86.604 351.084C93.916 351.055 99.174 348.489 104.844 342.182C124.676 320.124 118.536 283.634 94.7241 282.047C92.159 281.876 88.9246 282.106 87.5379 282.558ZM89.7085 292.717C87.8549 293.165 84.6387 295.192 82.5616 297.22C71.327 308.191 69.3083 328.076 78.4961 337.264C81.7727 340.54 82.8937 341.043 86.919 341.043C90.8376 341.043 92.1901 340.478 95.5694 337.424C102.858 330.839 106.625 322.073 106.787 311.324C106.984 298.174 99.7446 290.286 89.7085 292.717ZM181.282 325.194C175.975 335.852 169.925 352.962 167.582 363.937L166.884 367.208H195.131H223.38L228.366 357.27C231.109 351.805 234.055 346.63 234.913 345.773C236.259 344.428 239.635 344.273 259.371 344.649L282.268 345.086L263.148 340.192C231.315 332.047 215.613 326.626 197.498 317.527C192.393 314.963 188.038 312.866 187.818 312.866C187.599 312.866 184.658 318.413 181.282 325.194ZM185.56 337.421C181.221 341.76 180.851 346.892 184.609 350.649C187.434 353.474 189.821 353.72 194.683 351.689C200.774 349.144 203.037 341.563 199.173 336.651C195.968 332.576 190.07 332.91 185.56 337.421ZM597.101 337.908C585.717 340.36 584.371 340.908 577.477 345.907C561.584 357.43 542.993 363.85 522.112 365.022L510.067 365.698L516.875 370.169C534.878 381.99 550.074 400.884 557.924 421.211C564.577 438.439 567.903 464.336 563.967 468.272C559.85 472.388 554.514 469.241 539.75 453.992C529.062 442.953 528.304 442.38 523.352 441.597C520.497 441.145 517.207 440.474 516.041 440.104C514.473 439.606 514.078 439.788 514.525 440.805C527.202 469.682 528.343 474.462 523.009 476.327C520.195 477.31 516.795 476.682 493.093 470.806C471.095 465.353 466.707 463.029 451.617 448.845C442.876 440.629 436.72 435.638 435.326 435.638C434.996 435.638 434.726 436.378 434.726 437.284C434.726 438.662 433.97 438.827 430.092 438.296C426.596 437.817 425.588 437.967 425.987 438.913C426.278 439.603 427.998 443.45 429.809 447.462C432.506 453.44 432.927 455.259 432.135 457.525C431.343 459.79 430.474 460.35 427.361 460.608C421.04 461.132 407.893 455.879 392.964 446.865C387.601 443.627 386.29 443.256 381.236 443.542C378.106 443.718 374.558 443.334 373.35 442.687C372.143 442.041 370.994 441.674 370.798 441.87C369.684 442.983 375.195 455.068 382.41 467.337C395.515 489.619 397.931 494.757 396.638 497.595C394.364 502.586 388.322 501.776 371.97 494.287C366.512 491.788 359.46 488.282 356.3 486.496C352.272 484.218 348.736 483.082 344.474 482.696C341.13 482.393 336.294 481.215 333.728 480.08C331.161 478.945 329.062 478.244 329.062 478.522C329.062 478.8 331.828 485.001 335.21 492.302C345.685 514.921 346.757 518.6 343.626 521.198C341.844 522.677 337.6 522.966 334.345 521.83L332.081 521.04V542.744C332.081 554.681 332.478 564.447 332.964 564.447C333.449 564.447 334.426 563.751 335.132 562.899C337.222 560.38 352.086 550.94 360.761 546.619C401.763 526.203 455.191 521.247 525.798 531.31C553.914 535.317 596.436 545.174 610.078 550.848C611.749 551.543 611.839 546.032 611.839 443.293C611.839 357.262 611.581 335.034 610.581 335.14C609.89 335.215 603.824 336.459 597.101 337.908ZM20.728 345.823C18.9337 355.609 15.5917 379.22 14.5572 389.416L13.887 396.027L24.5299 399.098L35.1728 402.169L35.6971 399.029C36.5535 393.891 40.4087 346.057 40.0514 344.986C39.7556 344.099 24.6054 337.018 23.0023 337.018C22.639 337.018 21.6156 340.981 20.728 345.823ZM330.823 342.035C327.64 344.344 325.037 346.541 325.037 346.916C325.037 347.291 330.05 349.729 336.178 352.333C349.711 358.084 365.516 367.368 376.316 375.907L384.348 382.258L396.706 376.636C409.964 370.604 438.965 358.836 450.072 354.981C453.808 353.684 456.863 352.395 456.86 352.116C456.858 351.837 452.592 349.44 447.381 346.788C438.11 342.072 437.58 341.935 422.981 340.494C414.774 339.684 391.982 338.755 372.334 338.429L336.609 337.836L330.823 342.035ZM191.699 343.056C191.356 343.609 191.557 344.062 192.142 344.062C192.728 344.062 193.208 343.609 193.208 343.056C193.208 342.502 193.009 342.05 192.764 342.05C192.52 342.05 192.041 342.502 191.699 343.056ZM234.971 364.199C229.689 375.05 227.301 377.271 220.914 377.271C217.619 377.271 217.767 378.219 221.529 381.195L224.581 383.609L238.33 376.947C253.295 369.696 261.757 366.187 280.255 359.564L292.331 355.24L282.268 355.174C276.733 355.138 264.959 354.828 256.103 354.485L240.002 353.861L234.971 364.199ZM465.292 360.932C458.755 361.987 456.176 371.528 461.249 375.892C465.102 379.206 469.375 379.005 473.044 375.336C479.319 369.06 474.173 359.498 465.292 360.932ZM288.306 367.656C250.207 380.926 226.399 392.539 209.09 406.293C202.009 411.92 192.202 423.361 192.202 425.993C192.202 426.686 195.381 427.974 199.498 428.95C208.715 431.136 215.347 434.097 215.347 436.026C215.347 436.847 214.894 438.711 214.34 440.168C213.55 442.247 212.882 442.674 211.236 442.152C210.083 441.786 204.355 440.405 198.506 439.084C186.068 436.273 184.142 434.943 184.173 429.192C184.23 418.682 198.221 400.036 212.282 391.73C213.979 390.728 215.232 389.505 215.068 389.013C214.904 388.521 212.265 386.723 209.203 385.02L203.636 381.922L199.998 384.697C194.822 388.645 184.288 402.228 179.992 410.494C177.981 414.363 175.125 421.49 173.646 426.331C170.345 437.133 169.909 437.975 167.245 438.634C165.162 439.15 165.18 439.264 168.193 444.469C177.077 459.82 191.623 468.889 203.261 466.333L206.456 465.631L204.493 463.465C203.413 462.274 202.238 460.067 201.883 458.563C201.36 456.352 201.726 455.505 203.784 454.156C206.25 452.54 206.5 452.599 211.672 456.034C222.189 463.017 232.223 467.088 241.733 468.23L246.484 468.8L245.903 465.897C245.452 463.642 245.78 462.749 247.377 461.895C248.506 461.29 250.138 460.796 251.003 460.796C253.079 460.796 261.974 467.059 267.788 472.615L272.429 477.05L279.101 469.624C282.771 465.54 288.527 460.416 291.893 458.238L298.013 454.277L294.166 450.911C277.471 436.303 275.268 433.504 279.257 431.974C284.154 430.094 292.991 435.07 308.874 448.65C314.098 453.117 318.853 456.767 319.44 456.761C320.027 456.756 323.303 453.658 326.718 449.877C330.135 446.098 336.118 440.825 340.017 438.161L347.105 433.318L344.377 430.195C339.568 424.689 324.776 411.654 316.734 405.836C309.088 400.303 307.655 398.074 310.143 395.586C313.403 392.327 319.846 395.16 335.331 406.664C341.271 411.076 346.557 414.532 347.079 414.344C347.601 414.156 350.331 410.832 353.143 406.958C355.956 403.083 361.246 396.891 364.9 393.199C368.553 389.506 371.274 386.05 370.947 385.52C370.102 384.153 353.821 373.132 346.924 369.259L341.138 366.009L341.134 371.389C341.128 381.075 334.336 387.942 323.675 389.042C309.911 390.463 298.59 378.062 303.319 366.745C304.195 364.65 304.91 362.766 304.91 362.557C304.91 361.914 303.882 362.23 288.306 367.656ZM314.896 365.118C313.278 366.736 311.954 368.97 311.954 370.084C311.954 379.571 323.321 383.502 329.505 376.153C332.891 372.129 332.779 368.757 329.139 365.118C326.832 362.811 325.296 362.176 322.018 362.176C318.739 362.176 317.203 362.811 314.896 365.118ZM47.8817 385.366C46.8924 397.606 45.9344 408.829 45.7513 410.308C45.0277 416.146 44.1532 431.057 44.5618 430.594C53.7737 420.149 54.2024 419.483 55.3536 413.812C56.8027 406.666 59.7493 399.701 62.6102 396.655C64.3079 394.849 65.8446 394.379 70.0631 394.379C75.2748 394.379 75.3875 394.315 75.9269 391.108C76.2288 389.309 76.5891 384.97 76.727 381.465L76.9775 375.093L64.3985 369.569C57.48 366.531 51.3374 363.835 50.7487 363.578C50.0392 363.268 49.0721 370.619 47.8817 385.366ZM485.042 370.581C485.042 374.505 484.427 376.876 482.778 379.312C477.649 386.887 465.542 389.622 457.368 385.049C452.463 382.305 448.532 375.376 449.07 370.418C449.408 367.292 449.273 367.127 446.866 367.731C444.579 368.305 393.534 389.228 392.575 389.985C392.362 390.154 394.692 392.998 397.755 396.306C403.361 402.362 411.749 413.959 416.921 422.807C418.459 425.436 420.037 427.585 420.428 427.582C420.82 427.579 422.499 426.487 424.16 425.156L427.179 422.734L425.032 420.381C419.84 414.688 418.169 408.356 420.121 401.781C423.563 390.192 436.507 384.304 447.536 389.311C453.491 392.014 456.078 396.452 455.586 403.119C454.962 411.568 449.107 418.177 439.818 420.919L435.732 422.126L440.512 425.721C443.142 427.698 448.986 432.52 453.5 436.437L461.707 443.558L462.891 440.698C464.336 437.211 478.292 423.474 482.685 421.215L485.863 419.581L478.046 411.974C473.474 407.524 467.584 402.988 463.851 401.042C453.804 395.804 453.15 391.975 462.327 392.114C472.291 392.265 476.811 394.933 494.015 410.824C498.128 414.624 498.539 414.79 499.549 413.06C502.229 408.468 512.284 396.499 516.807 392.519L521.771 388.148L518.753 385.665C513.036 380.959 504.272 375.26 495.021 370.235C489.92 367.462 485.588 365.195 485.394 365.195C485.2 365.195 485.042 367.618 485.042 370.581ZM150.439 379.101C144.672 380.261 130.039 396.804 124.02 408.97C121.359 414.349 116.727 426.576 116.727 428.221C116.727 428.565 121.37 428.578 127.042 428.249C132.715 427.92 143.244 427.625 150.439 427.591L163.521 427.532L166.892 417.041C170.624 405.422 176.964 394.247 185.063 385.012C187.883 381.796 190.189 378.938 190.189 378.66C190.189 378.079 153.496 378.488 150.439 379.101ZM276.733 386.807C267.326 389.836 260.431 400.243 262.569 408.185C264.971 417.106 272.174 422.001 282.849 421.966C288.225 421.948 290.354 421.426 294.178 419.183C304 413.427 307.085 401.779 301.014 393.372C296.496 387.116 285.231 384.071 276.733 386.807ZM110.323 396.156C105.417 398.768 97.9946 403.738 93.8294 407.202C89.6643 410.665 86.0626 413.499 85.8272 413.499C83.7048 413.499 81.506 410.98 81.506 408.549C81.506 405.356 79.7238 404.479 73.1787 404.456C68.8615 404.44 68.7327 404.651 65.2076 417.524C62.8256 426.223 62.5368 426.703 54.8585 434.696L49.1204 440.669H55.0527C62.0256 440.669 68.3543 444.04 72.3565 449.885C74.673 453.269 74.9598 453.388 78.8976 452.625C81.1618 452.186 92.7124 451.807 104.563 451.783L126.111 451.739L130.727 454.716C133.267 456.353 139.411 461.787 144.38 466.792L153.416 475.891L173.564 475.858L193.711 475.823L187.84 473.804C180.202 471.176 175.76 468.249 169.402 461.651C163.856 455.895 156.282 444.764 155.329 440.966L154.749 438.657H131.366C101.033 438.657 102.228 439.6 108.287 420.457C111.808 409.337 115.338 401.421 119.805 394.63C122.758 390.141 121.126 390.404 110.323 396.156ZM374.65 396.633C369.61 401.825 356.233 419.579 356.233 421.075C356.233 423.564 363.974 429.481 369.246 431.022C372.252 431.9 374.813 432.619 374.937 432.619C375.061 432.619 374.922 429.975 374.629 426.745C373.762 417.175 378.3 410.477 387.908 407.151L391.726 405.828L385.961 399.349C382.791 395.785 379.884 392.751 379.504 392.607C379.124 392.462 376.939 394.274 374.65 396.633ZM277.049 397.347C271.043 401.009 270.229 405.137 274.643 409.551C279.74 414.648 290.206 413.31 293.173 407.182C294.93 403.555 293.795 399.191 290.494 396.878C287.513 394.79 280.862 395.023 277.049 397.347ZM525.283 397.771C521.207 400.551 515.38 407.316 509.282 416.352L504.978 422.726L507.337 425.287C509.874 428.039 515.028 430.606 518.017 430.606C519.527 430.606 519.786 429.976 519.453 427.118C518.904 422.421 522.326 415.635 526.754 412.638C528.681 411.335 532.529 409.977 535.306 409.619L540.357 408.97L535.295 402.429C532.511 398.832 529.909 395.773 529.514 395.632C529.117 395.491 527.213 396.454 525.283 397.771ZM434.925 398.075C429.325 400.834 426.985 407.621 430.529 410.827C435.456 415.286 445.796 409.465 445.796 402.231C445.796 400.182 445.023 399.062 442.827 397.927C439.186 396.044 439.04 396.047 434.925 398.075ZM13.0759 478.347C13.0759 518.507 13.4653 551.365 13.9413 551.365C14.4183 551.365 21.0973 549.809 28.7846 547.908C66.4403 538.597 117.77 530.404 158.384 527.223C187.187 524.967 223.783 526.626 248.206 531.294C277.049 536.808 297.005 545.087 315.202 559.089L321.011 563.559V540.354C321.011 527.592 321.065 516.819 321.13 516.415C321.195 516.01 317.388 513.709 312.668 511.3C306.287 508.044 302.217 506.686 296.791 506.005C287.538 504.844 284.887 503.224 269.747 489.481L257.558 478.417L247.774 478.721C237.845 479.029 226.072 476.877 219.847 473.616C217.415 472.342 216.994 472.476 213.706 475.578C211.764 477.409 208.175 480.079 205.731 481.512C196.606 486.859 195.539 486.935 130.021 486.948C69.8578 486.96 69.3144 486.979 65.113 489.132C59.9807 491.764 51.2086 492.047 46.7878 489.725C42.1698 487.299 37.4823 481.898 35.7615 477.019C34.0085 472.052 33.771 462.403 35.2442 456.02C36.1087 452.272 35.9738 451.491 34.1443 449.662C32.1699 447.688 32.1025 446.954 32.8824 435.821C33.3352 429.355 33.7056 421.191 33.7056 417.678V411.291L24.4001 408.934C19.2829 407.638 14.6407 406.296 14.0852 405.953C13.414 405.538 13.0759 429.758 13.0759 478.347ZM387.099 417.567C385.661 418.698 384.212 421.08 383.877 422.862C382.8 428.606 384.539 430.856 394.497 436.604C404.724 442.506 417.119 448.72 418.666 448.72C420.623 448.72 404.263 419.654 400.682 416.769C398.15 414.729 390.106 415.202 387.099 417.567ZM533.421 420.239C531.525 421.236 529.534 422.775 528.997 423.658C527.542 426.044 529.008 430.372 532.114 432.866C533.622 434.077 539.238 439.607 544.594 445.154C549.95 450.702 554.66 454.913 555.059 454.514C557.134 452.437 549.818 424.114 546.41 421.029C543.603 418.489 537.457 418.115 533.421 420.239ZM240.553 422.863C232.817 425.329 226.363 435.567 227.961 442.841C228.821 446.753 234.065 452.68 238.193 454.405C245.592 457.496 257.024 454.861 261.635 448.999C266.905 442.299 266.646 433.819 260.979 427.547C255.891 421.916 248.698 420.266 240.553 422.863ZM487.001 429.458C482.34 432.455 467.935 446.798 467.935 448.442C467.935 448.961 469.921 450.811 472.348 452.555L476.762 455.725L477.847 451.419C480.267 441.807 488.441 435.186 496.89 435.992C500.727 436.358 501.057 436.226 499.961 434.762C497.762 431.826 492.713 426.581 492.087 426.581C491.749 426.581 489.461 427.875 487.001 429.458ZM244.816 431.316C242.05 431.846 237.486 437.12 237.486 439.786C237.486 443.106 241.953 446.707 246.071 446.707C250.541 446.707 255.6 442.207 255.6 438.231C255.6 435.718 252.53 431.613 250.651 431.613C250.143 431.613 249.123 431.45 248.387 431.25C247.649 431.052 246.043 431.081 244.816 431.316ZM346.401 445.706C343.081 447.923 337.122 452.739 333.158 456.41L325.95 463.083L328.261 465.561C330.705 468.182 339.139 472.872 341.411 472.872C342.286 472.872 342.843 471.374 342.999 468.595C343.422 461.166 349.861 453.862 357.458 452.194L360.275 451.575L358.517 448.387C356.335 444.432 354.141 441.676 353.172 441.676C352.768 441.676 349.721 443.489 346.401 445.706ZM489.08 447.501C487.578 448.717 486.686 450.805 486.334 453.926C485.824 458.455 485.883 458.571 489.201 459.613C497.971 462.365 513.318 466.064 513.832 465.55C514.605 464.778 509.275 452.663 507.266 450.624C505.144 448.471 497.789 445.701 494.191 445.701C492.603 445.701 490.302 446.511 489.08 447.501ZM49.3076 453.593C40.5144 462.387 44.9472 480.922 55.8447 480.922C60.2162 480.922 62.7843 478.741 65.3032 472.886C66.9143 469.139 67.3208 466.788 66.8318 464.038C65.5074 456.586 59.9968 450.733 54.3081 450.733C53.1307 450.733 50.8805 452.02 49.3076 453.593ZM355.149 463.737C352.996 465.89 352.207 467.643 352.207 470.273V473.865L367.41 481.48C375.771 485.667 382.826 488.88 383.086 488.619C383.71 487.996 370.569 466.389 367.65 463.24C364.353 459.682 358.992 459.895 355.149 463.737ZM86.286 462.596L77.4807 462.887V467.797C77.4807 470.498 77.206 473.423 76.8699 474.299C76.3214 475.729 79.3625 475.891 106.781 475.891H137.303L130.306 468.84L123.309 461.788L109.2 462.047C101.44 462.189 91.1295 462.436 86.286 462.596ZM298.246 465.817C292.644 469.478 288.913 472.906 281.262 481.426L278.551 484.445L282.924 488.326C287.118 492.048 293.72 496.017 295.717 496.017C296.241 496.017 296.435 494.279 296.15 492.156C295.497 487.284 297.632 482.977 302.566 479.214C305.623 476.882 307.263 476.394 312.036 476.394H317.809L316.14 473.514C313.687 469.283 306.936 461.802 305.571 461.802C304.921 461.802 301.625 463.609 298.246 465.817ZM308.321 485.934C307.152 486.406 305.943 487.455 305.632 488.264C304.95 490.039 306.488 497.376 307.624 497.774C308.069 497.93 313.832 500.992 320.433 504.577C327.033 508.162 332.586 510.942 332.773 510.755C333.243 510.285 324.433 491.855 322.82 489.933C319.015 485.399 313.446 483.863 308.321 485.934ZM163.018 538.005C118.812 540.955 55.1403 551.186 16.8959 561.484L13.0759 562.512V581.594C13.0759 592.758 13.4664 600.675 14.0168 600.675C14.5341 600.675 16.0254 600.27 17.3296 599.773C21.5683 598.161 54.4882 590.79 73.6687 587.158C96.7327 582.79 121.751 579.186 144.904 576.898C166.758 574.737 214.993 574.43 229.939 576.356C256.772 579.815 279.426 586.16 300.382 596.085C315.056 603.035 323.147 605.134 331.9 604.259C338.524 603.597 349.25 600.033 354.639 596.702C363.581 591.175 389.709 583.004 411.024 579.067C444.798 572.829 480.148 573.468 527.308 581.168C554.371 585.586 587.344 593.174 603.192 598.629C606.46 599.754 609.753 600.675 610.509 600.675C611.631 600.675 611.832 597.16 611.61 581.473L611.336 562.272L596.241 557.405C548.353 541.966 472.751 533.593 428.244 538.798C389.332 543.351 359.663 555.133 337.986 574.642C327.764 583.842 326.359 583.86 316.645 574.927C302.367 561.796 290.256 554.468 273.714 548.951C250.548 541.225 219.208 537.064 187.17 537.461C176.377 537.595 165.509 537.839 163.018 538.005ZM457.143 554.437C449.823 554.854 439.86 555.701 435.004 556.32C423.606 557.772 398.273 562.544 398.858 563.129C399.105 563.377 401.931 563.095 405.138 562.501C408.345 561.908 419.597 560.925 430.143 560.315C474.718 557.739 527.704 563.463 585.576 577.105C591.333 578.462 596.22 579.395 596.437 579.179C596.654 578.963 597.092 577.176 597.411 575.21C598.087 571.046 599.936 571.8 574.815 565.998C545.578 559.246 523.987 556.022 497.118 554.399C479.074 553.308 476.949 553.31 457.143 554.437Z" stroke="black" stroke-width="2" stroke-linejoin="round"/>
<path d="M388.147 564.003C388.147 564.003 434.223 552.709 495.105 558.243C555.988 563.777 595.235 575.351 595.235 575.351" stroke="black" stroke-width="13" stroke-linecap="round"/>
<path d="M40.2471 574.856C40.2471 574.856 87.8964 560.884 157.839 558.315C227.781 555.746 264.005 561.838 264.005 561.838" stroke="black" stroke-width="13" stroke-linecap="round"/>
</svg>
