<svg width="467" height="467" viewBox="0 0 467 467" fill="none" xmlns="http://www.w3.org/2000/svg">
<path d="M87 387H33V334H87V387ZM87 262H26V203H87V262ZM84 142H33V77H84V142Z" fill="black"/>
<rect x="69" width="376" height="467" rx="90" fill="black"/>
<rect x="262" width="92" height="124" fill="white"/>
<rect x="262" width="39" height="135" fill="white"/>
<rect x="317" width="29" height="135" fill="white"/>
<path fill-rule="evenodd" clip-rule="evenodd" d="M21 147.345V64.6542L63.6815 64.2568L63.6667 63.3271V63.1675C63.6667 46.537 70.2766 30.594 82.0324 18.844C93.3555 7.52652 109.143 0 126.333 0H274.333V134.448L307.667 114.458L341 134.448V0H382.333C416.046 0 445 29.9903 445 63.1675V404.333C445 437.809 415.75 467 382.333 467H126.333C92.48 467 64 436.966 64 403.932V402.449L21 403.55V320.574L64 320.074V275.202L21 275.001V192.499L64 192.299V146.944L21 147.345ZM84 126.736V212.227L41 212.427V255.073L84 255.273V339.864L41 340.364V383.01L84 381.909V403.932C84 426.321 103.933 446.979 126.333 446.979H382.333C404.733 446.979 425 426.722 425 404.333V63.1675C425 40.7785 404.733 20.0214 382.333 20.0214H361V169.782L307.667 137.797L254.333 169.782V20.0214H126.333C115.017 20.0214 104.165 25.0148 96.1634 33.0124C88.1619 41.01 83.6667 51.8571 83.6667 63.1675L84 84.0899L64.0004 84.2761L41 84.4903V127.136L84 126.736ZM84 126.736L126.333 127.136V84.4903L84 84.0899V126.736ZM104 104.301V106.902L106.333 106.924V104.323L104 104.301ZM84 381.909H126V339.964L84 339.864V381.909ZM104 361.888H106V359.938L104 359.933V361.888ZM84 255.273H126V212.227H84V255.273ZM104 232.249H106V235.252H104V232.249Z" fill="white"/>
<rect x="96" y="97" width="18" height="14" fill="white"/>
<rect x="98" y="227" width="18" height="14" fill="white"/>
<rect x="100" y="357" width="18" height="14" fill="white"/>
<path d="M248.493 307.915L216.021 335.001L248.493 362.087C249.57 362.971 250.461 364.059 251.116 365.289C251.771 366.519 252.176 367.867 252.307 369.254C252.439 370.642 252.296 372.042 251.884 373.374C251.473 374.705 250.803 375.942 249.911 377.013C249.02 378.084 247.926 378.968 246.692 379.614C245.458 380.259 244.109 380.654 242.722 380.775C241.335 380.896 239.937 380.741 238.61 380.318C237.284 379.896 236.053 379.215 234.991 378.314L192.797 343.115C191.609 342.124 190.652 340.883 189.996 339.481C189.34 338.079 189 336.549 189 335.001C189 333.453 189.34 331.923 189.996 330.521C190.652 329.119 191.609 327.879 192.797 326.888L234.991 291.688C237.143 289.922 239.906 289.079 242.676 289.343C245.447 289.607 248.001 290.956 249.782 293.097C251.563 295.238 252.427 297.996 252.186 300.772C251.944 303.547 250.617 306.115 248.493 307.915ZM403.203 326.888L361.009 291.688C359.947 290.787 358.716 290.106 357.39 289.684C356.063 289.262 354.665 289.107 353.278 289.228C351.891 289.348 350.542 289.743 349.308 290.389C348.074 291.034 346.98 291.918 346.089 292.989C345.197 294.06 344.527 295.297 344.116 296.629C343.704 297.96 343.561 299.36 343.693 300.748C343.824 302.135 344.229 303.483 344.884 304.713C345.539 305.943 346.43 307.032 347.507 307.915L379.979 335.001L347.507 362.087C346.43 362.971 345.539 364.059 344.884 365.289C344.229 366.519 343.824 367.867 343.693 369.254C343.561 370.642 343.704 372.042 344.116 373.374C344.527 374.705 345.197 375.942 346.089 377.013C346.98 378.084 348.074 378.968 349.308 379.614C350.542 380.259 351.891 380.654 353.278 380.775C354.665 380.896 356.063 380.741 357.39 380.318C358.716 379.896 359.947 379.215 361.009 378.314L403.203 343.115C404.391 342.124 405.348 340.883 406.004 339.481C406.66 338.079 407 336.549 407 335.001C407 333.453 406.66 331.923 406.004 330.521C405.348 329.119 404.391 327.879 403.203 326.888ZM329.733 247.636C328.431 247.162 327.048 246.949 325.664 247.01C324.28 247.071 322.921 247.405 321.666 247.991C320.411 248.578 319.283 249.407 318.347 250.43C317.412 251.453 316.687 252.651 316.214 253.954L259.955 408.832C259.002 411.464 259.131 414.367 260.314 416.903C261.498 419.439 263.639 421.401 266.267 422.358C267.421 422.784 268.641 423.001 269.871 423C272.037 423 274.15 422.333 275.924 421.09C277.698 419.846 279.046 418.086 279.786 416.048L336.045 261.17C336.518 259.867 336.731 258.482 336.67 257.097C336.609 255.711 336.276 254.351 335.69 253.094C335.104 251.837 334.276 250.708 333.254 249.772C332.232 248.835 331.035 248.109 329.733 247.636Z" fill="white"/>
</svg>
