<svg width="111" height="111" viewBox="0 0 111 111" fill="none" xmlns="http://www.w3.org/2000/svg">
<path d="M4.5 60C2.01472 60 0 57.9853 0 55.5C0 53.0147 2.01472 51 4.5 51H23.5C25.9853 51 28 53.0147 28 55.5C28 57.9853 25.9853 60 23.5 60H4.5Z" fill="white" fill-opacity="0.42"/>
<path d="M9.08266 33.8971C6.93034 32.6545 6.19291 29.9023 7.43555 27.75C8.67819 25.5977 11.4303 24.8602 13.5827 26.1029L30.0371 35.6029C32.1895 36.8455 32.9269 39.5977 31.6843 41.75C30.4416 43.9023 27.6895 44.6397 25.5371 43.3971L9.08266 33.8971Z" fill="white" fill-opacity="0.46"/>
<path d="M26.1029 13.5827C24.8603 11.4303 25.5977 8.67819 27.75 7.43555C29.9023 6.19291 32.6545 6.93034 33.8971 9.08266L43.3971 25.5371C44.6398 27.6895 43.9023 30.4416 41.75 31.6843C39.5977 32.9269 36.8455 32.1895 35.6029 30.0371L26.1029 13.5827Z" fill="white" fill-opacity="0.5"/>
<path d="M51 4.5C51 2.01472 53.0147 0 55.5 0C57.9853 0 60 2.01472 60 4.5V23.5C60 25.9853 57.9853 28 55.5 28C53.0147 28 51 25.9853 51 23.5V4.5Z" fill="white" fill-opacity="0.57"/>
<path d="M77.1029 9.08266C78.3455 6.93034 81.0977 6.19291 83.25 7.43555C85.4023 8.67819 86.1398 11.4303 84.8971 13.5827L75.3971 30.0371C74.1545 32.1895 71.4023 32.9269 69.25 31.6843C67.0977 30.4416 66.3603 27.6895 67.6029 25.5371L77.1029 9.08266Z" fill="white" fill-opacity="0.12"/>
<path d="M97.4173 26.1029C99.5697 24.8603 102.322 25.5977 103.564 27.75C104.807 29.9023 104.07 32.6545 101.917 33.8971L85.4629 43.3971C83.3105 44.6398 80.5584 43.9023 79.3157 41.75C78.0731 39.5977 78.8105 36.8455 80.9629 35.6029L97.4173 26.1029Z" fill="white" fill-opacity="0.16"/>
<path d="M106.5 51C108.985 51 111 53.0147 111 55.5C111 57.9853 108.985 60 106.5 60H87.5C85.0147 60 83 57.9853 83 55.5C83 53.0147 85.0147 51 87.5 51H106.5Z" fill="white" fill-opacity="0.19"/>
<path d="M101.917 77.1029C104.07 78.3455 104.807 81.0977 103.564 83.25C102.322 85.4023 99.5697 86.1398 97.4173 84.8971L80.9629 75.3971C78.8105 74.1545 78.0731 71.4023 79.3157 69.25C80.5584 67.0977 83.3105 66.3603 85.4629 67.6029L101.917 77.1029Z" fill="white" fill-opacity="0.235"/>
<path d="M84.8971 97.4173C86.1397 99.5696 85.4023 102.322 83.25 103.564C81.0977 104.807 78.3455 104.07 77.1029 101.917L67.6029 85.4628C66.3602 83.3105 67.0977 80.5583 69.25 79.3157C71.4023 78.073 74.1545 78.8105 75.3971 80.9628L84.8971 97.4173Z" fill="white" fill-opacity="0.27"/>
<path d="M60 106.5C60 108.985 57.9853 111 55.5 111C53.0147 111 51 108.985 51 106.5V87.5C51 85.0147 53.0147 83 55.5 83C57.9853 83 60 85.0147 60 87.5V106.5Z" fill="white" fill-opacity="0.31"/>
<path d="M33.8971 101.917C32.6545 104.07 29.9023 104.807 27.75 103.564C25.5977 102.322 24.8602 99.5696 26.1029 97.4173L35.6029 80.9628C36.8455 78.8105 39.5977 78.073 41.75 79.3157C43.9023 80.5583 44.6397 83.3105 43.3971 85.4628L33.8971 101.917Z" fill="white" fill-opacity="0.35"/>
<path d="M13.5827 84.8971C11.4303 86.1397 8.67819 85.4023 7.43555 83.25C6.19291 81.0977 6.93034 78.3455 9.08266 77.1029L25.5371 67.6029C27.6895 66.3602 30.4416 67.0977 31.6843 69.25C32.9269 71.4023 32.1895 74.1545 30.0371 75.3971L13.5827 84.8971Z" fill="white" fill-opacity="0.38"/>
</svg>
